<?xml version="1.0" encoding="utf-8"?>
<!-- Generator: Adobe Illustrator 19.0.0, SVG Export Plug-In . SVG Version: 6.00 Build 0)  -->
<svg version="1.1" id="Layer_1" xmlns="http://www.w3.org/2000/svg" xmlns:xlink="http://www.w3.org/1999/xlink" x="0px" y="0px"
	 viewBox="0 0 312.2 210.4" style="enable-background:new 0 0 312.2 210.4;" xml:space="preserve">
<style type="text/css">
	.st0{clip-path:url(#SVGID_2_);fill-rule:evenodd;clip-rule:evenodd;fill:#004FA2;}
	.st1{clip-path:url(#SVGID_2_);fill-rule:evenodd;clip-rule:evenodd;fill:#ED3024;}
	.st2{clip-path:url(#SVGID_2_);fill-rule:evenodd;clip-rule:evenodd;fill:#FFFFFF;}
</style>
<g>
	<defs>
		<rect id="SVGID_1_" width="312.2" height="210.4"/>
	</defs>
	<clipPath id="SVGID_2_">
		<use xlink:href="#SVGID_1_"  style="overflow:visible;"/>
	</clipPath>
	<path class="st0" d="M243.4,171.2l-28.5,5.5L191.4,57l29.5-5.2c2.9,13.7,7.6,38.5,10.2,54.5l38.5-63.1l23.3,14.7l-31.4,45.9
		l50.6,35.5l-17.4,23.3l-62.4-49L243.4,171.2z M61.6,51.4c1.2,8.9,0.9,11,2.2,22C53.3,74.3,29.7,78,31.5,89.6
		c2.2,13.8,40.4,15.5,40.7,38c0.4,28.9-34.5,46.7-63.3,47.5C8,169.2,7,161.9,5.1,153.3c18.3-1.5,34.8-6.9,35.7-17.8
		c0.9-11-46-21.1-40.4-45.9C5.3,68.2,35.6,54.1,61.6,51.4"/>
	<polygon class="st0" points="34.6,170 47.1,164.4 57.3,166.9 30.3,210.4 20.7,206.1 	"/>
	<path class="st1" d="M195.1,76.2l-18.2,0.3l-6.2-38L131.8,60L66.3,19.6L92.1,78L56.3,91.5l29.2,38.9l-20.8,32.5l40.4-10.4
		l25.2,47.8l18-38.3l50.9,11.6l-9.6-51.4l12.7-11.3L195.1,76.2z M101.4,157.6l6.8,12.2L52,193.5L101.4,157.6z M189.8,204.5
		l-14.2-31.9l-24.2-5.8L189.8,204.5z M175.3,46.8l4,15.3l30.7-41.3L175.3,46.8z M74.9,0l19.3,33.7l32.4,16.8L74.9,0z M225.2,75.6
		l16.4-0.3l-14,12.5L225.2,75.6z"/>
	<path class="st2" d="M91,111.4c0-23.2,21.2-41.7,44.7-41.7c32,0,44.1,18.8,44.1,42c0,23.2-20.6,42-44.1,42
		C101.3,153.7,91,134.6,91,111.4 M118.3,112c0-11.2,8.1-20.9,16.9-20.9c11.3,0,16.4,8.8,16.4,20c0,11.2-6.8,20.5-16.4,20.5
		C123.9,131.6,118.3,123.2,118.3,112"/>
</g>
</svg>
