<?xml version="1.0" encoding="utf-8"?>
<!-- Generator: Adobe Illustrator 21.1.0, SVG Export Plug-In . SVG Version: 6.00 Build 0)  -->
<svg version="1.1" id="Layer_1" xmlns="http://www.w3.org/2000/svg" xmlns:xlink="http://www.w3.org/1999/xlink" x="0px" y="0px"
	 viewBox="0 0 20.7999992 21.2999992" style="enable-background:new 0 0 20.7999992 21.2999992;" xml:space="preserve">
<style type="text/css">
	.st0{fill:#0551A0;}
	.st1{fill:#EC2027;}
	.st2{fill:#FFFFFF;}
</style>
<g>
	<g>
		<path class="st0" d="M4.0601401,5.5317326L3.972079,7.1676884C3.6321814,7.3045869,3.3276827,7.3730907,3.0586927,7.3730907
			c-0.6333611,0-1.1664248-0.2322798-1.5993-0.6969485C0.9751669,6.1552606,0.7331632,5.4179964,0.7331632,4.4642944
			c0-0.8925185,0.2273632-1.609024,0.682199-2.1494625C1.870198,1.7768518,2.4778841,1.507807,3.23842,1.507807
			c0.2470295,0,0.4988663,0.0464888,0.7556195,0.1394117v1.6176004c-0.2273631-0.2274177-0.460954-0.3410995-0.7005541-0.3410995
			c-0.3131297,0-0.5575371,0.1332932-0.7336588,0.3998251C2.3838139,3.5925348,2.295753,3.9642262,2.295753,4.4386191
			c0,0.229876,0.0219605,0.4352784,0.0659912,0.6162624c0.0440304,0.1809835,0.1069622,0.3337793,0.1889048,0.4584956
			c0.0819426,0.1247168,0.1827865,0.220098,0.3026412,0.2860889c0.1197455,0.0660458,0.2567534,0.0990415,0.4108052,0.0990415
			C3.5281689,5.8985076,3.7935536,5.7762489,4.0601401,5.5317326z"/>
		<path class="st0" d="M4.6005793,7.2740498V1.610563h2.842751v1.3315117H6.1301737v0.8252709h1.1774597v1.2801611H6.1301737
			v0.8656955h1.3131566v1.3608475H4.6005793z"/>
		<path class="st0" d="M9.823616,7.2740498H8.2940216V1.610563H9.77598c0.7384663,0,1.28617,0.1503919,1.6432209,0.4511757
			c0.4206381,0.3545928,0.6309576,0.847286,0.6309576,1.478189c0,0.6872246-0.2237577,1.199475-0.6712732,1.5369689
			c-0.3057003,0.2274179-0.744585,0.3410997-1.3168716,0.3410997H9.823616V7.2740498z M9.823616,4.1451554L9.893321,4.14887
			c0.1858463,0,0.3337793-0.0568681,0.4438009-0.1706042c0.1100216-0.1136818,0.1650867-0.2695911,0.1650867-0.4676735
			c0-0.1956241-0.0538635-0.3545382-0.1613722-0.476851c-0.1076174-0.1247165-0.2446251-0.1870475-0.4108047-0.1870475H9.823616
			V4.1451554z"/>
		<path class="st0" d="M14.5065441,7.2740498h-1.5295935V2.9677501h-0.8436813V1.610563h3.2499514v1.357187h-0.8766766V7.2740498z"
			/>
		<path class="st0" d="M15.9031696,7.2740498V1.610563h2.8427505v1.3315117h-1.3131561v0.8252709h1.1774597v1.2801611h-1.1774597
			v0.8656955h1.3131561v1.3608475H15.9031696z"/>
	</g>
	<g>
		<path class="st0" d="M3.3569045,16.8376331l0.6515088,0.1659527l-1.7557211,2.7886066l-0.6061709-0.2744522l0.8852625-2.320219
			c0,0-0.6108105,0.2812729-1.6429054,0.3245716l-0.2454008-1.4028893c0,0,1.4844258-0.0780563,2.0601988-0.6503944
			c0,0,0.4558105-0.4792938,0.1050193-0.8023338c0,0-0.2646601-0.3135271-1.0009561-0.6821394
			c-0.6479824-0.3242931-1.5124092-0.9422512-1.5077215-1.7775803c0,0,0.0210679-0.8870726,0.9490256-1.524847
			c0.9285611-0.6382351,2.3727984-1.0466204,3.0624094-1.1435165l0.12219,1.398942c0,0-2.0774641,0.1509628-2.0850282,0.9108334
			c0,0-0.0501659,0.4065275,0.493818,0.7150412c0.6004169,0.3408613,1.7568371,0.7939806,2.0381567,1.4231234
			C4.88059,13.9863319,5.5918269,15.5054226,3.3569045,16.8376331"/>
		<polygon class="st1" points="11.9176893,10.3349886 13.9136581,7.6714497 11.6688051,9.3554287 		"/>
		<polygon class="st1" points="8.4811058,9.5806723 5.1668448,6.3497152 6.399188,8.50811 		"/>
		<g>
			<polygon class="st1" points="4.5049372,16.8520565 5.8358746,14.7753153 3.9533267,12.2619123 6.2594118,11.3874798 
				4.6007352,7.6018448 8.8206663,10.2160521 11.3339777,8.8413887 11.7323818,11.2908936 15.9802284,11.217165 
				12.5470905,14.2510166 13.1971416,17.5984173 9.9073792,16.7982693 8.7309875,19.2773571 7.0963306,16.1771507 			"/>
			<polygon class="st1" points="3.7008839,18.830986 6.8522325,16.5416412 7.3055387,17.316288 			"/>
			<polygon class="st1" points="10.1114368,17.1413727 11.6432009,17.4930382 12.5741558,19.5593929 			"/>
		</g>
		<path class="st2" d="M8.9689331,10.7232161c0,0,3.0293646-0.3192797,2.9724722,2.7938509
			c0,0-0.0785704,2.6220036-3.1025982,2.6245575c0,0-2.6247888,0.0466385-2.6259489-2.4459362
			C6.2128582,13.6956882,6.2623739,10.8408136,8.9689331,10.7232161"/>
		<path class="st1" d="M9.0432777,12.0975046c0,0,1.1504316-0.0684967,1.100915,1.3768539
			c0,0-0.1091948,1.2559633-1.1670475,1.218606c0,0-1.0512142-0.0477057-1.0294042-1.2435255
			C7.947741,13.449439,7.9499702,12.1731949,9.0432777,12.0975046"/>
		<polygon class="st0" points="14.196146,17.6319809 16.0688591,17.2702847 15.3347902,13.5385437 19.3753681,16.7118206 
			20.5,15.2141218 17.2314987,12.9099598 19.2600956,9.9419451 17.7710266,8.9990416 15.2615137,13.0952625 14.594224,9.5516138 
			12.7004414,9.8976707 		"/>
	</g>
</g>
</svg>
