<?xml version="1.0" encoding="utf-8"?>
<!-- Generator: Adobe Illustrator 20.1.0, SVG Export Plug-In . SVG Version: 6.00 Build 0)  -->
<svg version="1.1" id="Layer_1" xmlns="http://www.w3.org/2000/svg" xmlns:xlink="http://www.w3.org/1999/xlink" x="0px" y="0px"
	 viewBox="0 0 185.3 112" style="enable-background:new 0 0 185.3 112;" xml:space="preserve">
<style type="text/css">
	.st0{fill-rule:evenodd;clip-rule:evenodd;fill:#FAB51D;}
	.st1{fill-rule:evenodd;clip-rule:evenodd;fill:#E40520;}
	.st2{fill-rule:evenodd;clip-rule:evenodd;fill:#FFFFFF;}
	.st3{fill:none;stroke:#FFFFFF;stroke-width:0.216;stroke-miterlimit:2.6131;}
</style>
<g>
	<polygon class="st0" points="130.4,112 133.2,111.9 136.1,111.7 138.9,111.3 141.7,110.8 144.4,110.2 147,109.5 149.6,108.6 
		152.2,107.6 154.7,106.4 157.1,105.2 159.4,103.9 161.7,102.4 163.9,100.8 166,99.2 168.1,97.4 170,95.5 171.9,93.6 173.6,91.6 
		175.3,89.4 176.9,87.3 178.3,85 179.7,82.6 180.9,80.2 182,77.7 183,75.2 183.9,72.6 184.7,69.9 185.3,67.2 185.8,64.4 186.2,61.6 
		186.4,58.8 186.4,55.9 186.4,53 186.2,50.2 185.8,47.4 185.3,44.6 184.7,41.9 183.9,39.3 183,36.7 182,34.2 180.9,31.7 179.7,29.3 
		178.3,27 176.9,24.7 175.3,22.5 173.6,20.4 171.9,18.3 170,16.4 168.1,14.5 166,12.8 163.9,11.1 161.7,9.6 159.4,8.1 157.1,6.8 
		154.7,5.5 152.2,4.4 149.6,3.4 147,2.5 144.4,1.8 141.7,1.1 138.9,0.6 136.1,0.3 133.2,0.1 130.4,0 127.5,0.1 124.6,0.3 121.8,0.6 
		119.1,1.1 116.4,1.8 113.7,2.5 111.1,3.4 108.6,4.4 106.1,5.5 103.7,6.8 101.4,8.1 99.1,9.6 96.9,11.1 94.8,12.8 92.8,14.5 
		90.8,16.4 89,18.3 87.2,20.4 85.6,22.5 84,24.7 82.6,27 81.2,29.3 80,31.7 78.9,34.2 77.8,36.7 77,39.3 76.2,41.9 75.6,44.6 
		75.1,47.4 74.8,50.2 74.5,53 74.5,55.9 74.5,58.8 74.8,61.6 75.1,64.4 75.6,67.2 76.2,69.9 77,72.6 77.8,75.2 78.9,77.7 80,80.2 
		81.2,82.6 82.6,85 84,87.3 85.6,89.4 87.2,91.6 89,93.6 90.8,95.5 92.8,97.4 94.8,99.2 96.9,100.8 99.1,102.4 101.4,103.9 
		103.7,105.2 106.1,106.4 108.6,107.6 111.1,108.6 113.7,109.5 116.4,110.2 119.1,110.8 121.8,111.3 124.6,111.7 127.5,111.9 
		130.4,112 130.4,112 	"/>
	<polygon class="st1" points="55.4,112 58.3,111.9 61.2,111.7 64,111.3 66.7,110.8 69.4,110.2 72.1,109.5 74.7,108.6 77.2,107.6 
		79.7,106.4 82.1,105.2 84.4,103.9 86.7,102.4 88.9,100.8 91,99.2 93,97.4 95,95.5 96.8,93.6 98.6,91.6 100.2,89.4 101.8,87.3 
		103.3,85 104.6,82.6 105.8,80.2 107,77.7 108,75.2 108.8,72.6 109.6,69.9 110.2,67.2 110.7,64.4 111.1,61.6 111.3,58.8 111.3,55.9 
		111.3,53 111.1,50.2 110.7,47.4 110.2,44.6 109.6,41.9 108.8,39.3 108,36.7 107,34.2 105.8,31.7 104.6,29.3 103.3,27 101.8,24.7 
		100.2,22.5 98.6,20.4 96.8,18.3 95,16.4 93,14.5 91,12.8 88.9,11.1 86.7,9.6 84.4,8.1 82.1,6.8 79.7,5.5 77.2,4.4 74.7,3.4 
		72.1,2.5 69.4,1.8 66.7,1.1 64,0.6 61.2,0.3 58.3,0.1 55.4,0 52.6,0.1 49.7,0.3 46.9,0.6 44.1,1.1 41.4,1.8 38.8,2.5 36.2,3.4 
		33.6,4.4 31.1,5.5 28.7,6.8 26.4,8.1 24.1,9.6 21.9,11.1 19.8,12.8 17.7,14.5 15.8,16.4 13.9,18.3 12.2,20.4 10.5,22.5 8.9,24.7 
		7.5,27 6.1,29.3 4.9,31.7 3.8,34.2 2.8,36.7 1.9,39.3 1.1,41.9 0.5,44.6 0,47.4 -0.4,50.2 -0.6,53 -0.6,55.9 -0.6,58.8 -0.4,61.6 
		0,64.4 0.5,67.2 1.1,69.9 1.9,72.6 2.8,75.2 3.8,77.7 4.9,80.2 6.1,82.6 7.5,85 8.9,87.3 10.5,89.4 12.2,91.6 13.9,93.6 15.8,95.5 
		17.7,97.4 19.8,99.2 21.9,100.8 24.1,102.4 26.4,103.9 28.7,105.2 31.1,106.4 33.6,107.6 36.2,108.6 38.8,109.5 41.4,110.2 
		44.1,110.8 46.9,111.3 49.7,111.7 52.6,111.9 55.4,112 55.4,112 	"/>
	<polygon class="st0" points="86.3,21.5 116.1,21.5 116.1,18.4 88.9,18.4 86.3,21.5 86.3,21.5 	"/>
	<polygon class="st0" points="81.9,28.2 116.1,28.2 116.1,25.2 83.7,25.2 81.9,28.2 81.9,28.2 	"/>
	<polygon class="st0" points="78.6,35 116.1,35 116.1,31.9 79.9,31.9 78.6,35 78.6,35 	"/>
	<polygon class="st0" points="76.3,41.7 116.1,41.7 116.1,38.7 77.2,38.7 76.3,41.7 76.3,41.7 	"/>
	<polygon class="st0" points="77.6,74.4 116.2,74.4 116.2,71.4 76.7,71.4 77.6,74.4 77.6,74.4 	"/>
	<polygon class="st0" points="80.5,81.2 116.2,81.2 116.2,78.1 79,78.1 80.5,81.2 80.5,81.2 	"/>
	<polygon class="st0" points="84.5,87.9 116.2,87.9 116.2,84.9 82.6,84.9 84.5,87.9 84.5,87.9 	"/>
	<polygon class="st0" points="90,94.7 116.2,94.7 116.2,91.6 87.3,91.6 90,94.7 90,94.7 	"/>
	<polygon class="st0" points="74.9,48.5 116.1,48.5 116.1,45.4 75.5,45.4 74.9,48.5 74.9,48.5 	"/>
	<polygon class="st0" points="100,67.7 115.7,67.7 115.7,64.6 100.6,64.6 100,67.7 100,67.7 	"/>
	<polygon class="st0" points="101.3,60.9 115.7,60.9 115.7,57.9 101.8,57.9 101.3,60.9 101.3,60.9 	"/>
	<polygon class="st0" points="73.9,57.9 78,57.9 78,60.9 74.1,60.9 73.9,57.9 73.9,57.9 	"/>
	<polygon class="st2" points="66.3,54.2 66,54.2 65.8,54.1 65.5,54.1 65.3,54.1 65,54 64.8,54 64.6,53.9 64.3,53.9 64,53.9 
		63.7,53.8 63.4,53.8 63,53.8 62.6,53.8 62.2,53.8 61.7,53.9 61.2,53.9 60.8,54 60.4,54 60.1,54.1 59.8,54.2 59.5,54.4 59.3,54.5 
		59.1,54.7 58.9,54.9 58.8,55.1 58.7,55.3 58.7,55.5 58.7,55.8 58.8,56 58.8,56.2 59,56.5 59.2,56.7 59.5,57.1 60,57.4 60.5,57.6 
		61.1,57.8 61.7,58 62.3,58.2 62.9,58.5 63.6,58.7 64.1,59 64.6,59.4 65.1,59.9 65.5,60.5 65.8,61.2 66,62 66.1,63.1 66,64.3 
		65.9,65.1 65.6,65.9 65.3,66.6 65,67.3 64.5,67.8 64,68.3 63.5,68.7 62.9,69 62.3,69.3 61.7,69.6 61.1,69.8 60.4,69.9 59.8,70 
		59.1,70.1 58.5,70.1 57.9,70.1 57.1,70.1 56.4,70.1 55.7,70.1 55.1,70.1 54.5,70.1 54,70 53.5,70 53.1,70 52.7,69.9 52.4,69.8 
		52,69.8 51.7,69.7 51.4,69.6 51,69.5 50.7,69.4 50.4,69.3 51.3,65.1 51.4,65.1 51.7,65.2 51.9,65.3 52.2,65.3 52.6,65.4 53,65.5 
		53.4,65.6 53.8,65.7 54.3,65.7 54.8,65.8 55.3,65.9 55.8,65.9 56.4,66 56.9,66 57.5,66 58,66 58.6,65.8 59,65.7 59.3,65.5 
		59.6,65.2 59.8,64.9 59.9,64.6 60,64.3 60.1,64.1 60.2,63.5 60,63 59.7,62.7 59.2,62.3 58.6,62.1 58,61.8 57.2,61.5 56.5,61.2 
		55.7,60.9 55,60.5 54.4,60 53.8,59.4 53.3,58.7 52.9,57.8 52.8,56.8 52.8,55.6 52.9,54.9 53,54.2 53.2,53.5 53.4,52.9 53.7,52.4 
		54.1,51.9 54.5,51.4 54.9,51 55.5,50.6 56.1,50.3 56.8,50 57.5,49.8 58.4,49.7 59.3,49.5 60.3,49.4 61.4,49.4 62.1,49.4 62.8,49.4 
		63.4,49.5 63.9,49.5 64.4,49.5 64.8,49.6 65.2,49.6 65.5,49.6 65.8,49.7 66.1,49.7 66.3,49.8 66.6,49.8 66.8,49.8 66.9,49.9 
		67.1,49.9 67.3,49.9 66.3,54.2 66.3,54.2 	"/>
	<polyline class="st3" points="66.3,54.2 66.3,54.2 66,54.2 65.8,54.1 65.5,54.1 65.3,54.1 65,54 64.8,54 64.6,53.9 64.3,53.9 
		64,53.9 63.7,53.8 63.4,53.8 63,53.8 62.6,53.8 62.2,53.8 61.7,53.9 61.2,53.9 61.2,53.9 60.8,54 60.4,54 60.1,54.1 59.8,54.2 
		59.5,54.4 59.3,54.5 59.1,54.7 58.9,54.9 58.8,55.1 58.7,55.3 58.7,55.5 58.7,55.8 58.8,56 58.8,56.2 59,56.5 59.2,56.7 59.2,56.7 
		59.5,57.1 60,57.4 60.5,57.6 61.1,57.8 61.7,58 62.3,58.2 62.9,58.5 63.6,58.7 64.1,59 64.6,59.4 65.1,59.9 65.5,60.5 65.8,61.2 
		66,62 66.1,63.1 66,64.3 66,64.3 65.9,65.1 65.6,65.9 65.3,66.6 65,67.3 64.5,67.8 64,68.3 63.5,68.7 62.9,69 62.3,69.3 61.7,69.6 
		61.1,69.8 60.4,69.9 59.8,70 59.1,70.1 58.5,70.1 57.9,70.1 57.9,70.1 57.1,70.1 56.4,70.1 55.7,70.1 55.1,70.1 54.5,70.1 54,70 
		53.5,70 53.1,70 52.7,69.9 52.4,69.8 52,69.8 51.7,69.7 51.4,69.6 51,69.5 50.7,69.4 50.4,69.3 51.3,65.1 51.3,65.1 51.4,65.1 
		51.7,65.2 51.9,65.3 52.2,65.3 52.6,65.4 53,65.5 53.4,65.6 53.8,65.7 54.3,65.7 54.8,65.8 55.3,65.9 55.8,65.9 56.4,66 56.9,66 
		57.5,66 58,66 58,66 58.6,65.8 59,65.7 59.3,65.5 59.6,65.2 59.8,64.9 59.9,64.6 60,64.3 60.1,64.1 60.1,64.1 60.2,63.5 60,63 
		59.7,62.7 59.2,62.3 58.6,62.1 58,61.8 57.2,61.5 56.5,61.2 55.7,60.9 55,60.5 54.4,60 53.8,59.4 53.3,58.7 52.9,57.8 52.8,56.8 
		52.8,55.6 52.8,55.6 52.9,54.9 53,54.2 53.2,53.5 53.4,52.9 53.7,52.4 54.1,51.9 54.5,51.4 54.9,51 55.5,50.6 56.1,50.3 56.8,50 
		57.5,49.8 58.4,49.7 59.3,49.5 60.3,49.4 61.4,49.4 61.4,49.4 62.1,49.4 62.8,49.4 63.4,49.5 63.9,49.5 64.4,49.5 64.8,49.6 
		65.2,49.6 65.5,49.6 65.8,49.7 66.1,49.7 66.3,49.8 66.6,49.8 66.8,49.8 66.9,49.9 67.1,49.9 67.3,49.9 66.3,54.2 	"/>
	<polygon class="st2" points="70.8,45.3 76,45.3 75.2,49.8 78.4,49.8 77.7,54.1 74.4,54 72.6,64.5 72.5,64.9 72.6,65.2 72.8,65.5 
		73.1,65.7 73.4,65.8 73.8,65.9 74.2,66 74.7,66 75.1,66 75.5,66 75.8,65.9 76.1,65.9 76.3,65.8 76.5,65.7 76.6,65.7 76.7,65.7 
		76,69.2 75.9,69.3 75.7,69.4 75.6,69.4 75.5,69.5 75.3,69.6 75.2,69.6 75,69.7 74.8,69.7 74.7,69.8 74.5,69.8 74.2,69.9 74,69.9 
		73.8,69.9 73.5,70 73.2,70 72.9,70 71.4,70 70.7,70 70,69.9 69.4,69.8 68.9,69.7 68.5,69.5 68.1,69.3 67.8,69.1 67.5,68.8 
		67.3,68.6 67.2,68.3 67.1,67.9 67.1,67.6 67,67.2 67,66.8 67.1,66.3 67.2,65.9 70.8,45.3 70.8,45.3 	"/>
	<polyline class="st3" points="70.8,45.3 76,45.3 75.2,49.8 78.4,49.8 77.7,54.1 74.4,54 72.6,64.5 72.6,64.5 72.5,64.9 72.6,65.2 
		72.8,65.5 73.1,65.7 73.4,65.8 73.8,65.9 74.2,66 74.7,66 74.7,66 75.1,66 75.5,66 75.8,65.9 76.1,65.9 76.3,65.8 76.5,65.7 
		76.6,65.7 76.7,65.7 76,69.2 76,69.2 75.9,69.3 75.7,69.4 75.6,69.4 75.5,69.5 75.3,69.6 75.2,69.6 75,69.7 74.8,69.7 74.7,69.8 
		74.5,69.8 74.2,69.9 74,69.9 73.8,69.9 73.5,70 73.2,70 72.9,70 71.4,70 71.4,70 70.7,70 70,69.9 69.4,69.8 68.9,69.7 68.5,69.5 
		68.1,69.3 67.8,69.1 67.5,68.8 67.3,68.6 67.2,68.3 67.1,67.9 67.1,67.6 67,67.2 67,66.8 67.1,66.3 67.2,65.9 70.8,45.3 	"/>
	<polygon class="st2" points="82.6,61.2 82.5,61.5 82.5,61.9 82.5,62.2 82.6,62.6 82.7,62.9 82.9,63.3 83.1,63.6 83.3,64 83.6,64.3 
		83.9,64.6 84.2,64.9 84.5,65.1 84.8,65.3 85.2,65.5 85.6,65.6 86,65.7 86.5,65.7 86.9,65.8 87.4,65.9 87.9,65.9 88.4,65.9 
		88.9,65.9 89.4,65.9 89.9,65.9 90.4,65.8 90.9,65.7 91.5,65.6 92,65.4 92.5,65.2 93.1,65 93.6,64.7 94.1,64.3 93.4,69 93.1,69.1 
		92.8,69.3 92.5,69.4 92.2,69.5 91.9,69.6 91.6,69.7 91.3,69.8 91,69.8 90.6,69.9 90.3,69.9 89.9,70 89.4,70 88.9,70 88.4,70 
		87.8,70 87.2,70 86.3,70 85.3,69.9 84.4,69.8 83.5,69.6 82.5,69.3 81.6,68.9 80.8,68.5 80,67.9 79.3,67.3 78.6,66.5 78.1,65.6 
		77.6,64.6 77.3,63.5 77.1,62.2 77,60.9 77.1,59.3 77.2,58.7 77.3,58 77.5,57.3 77.7,56.5 78,55.7 78.3,54.8 78.7,54 79.3,53.2 
		79.9,52.5 80.6,51.7 81.4,51.1 82.4,50.5 83.5,50.1 84.7,49.7 86.1,49.5 87.6,49.4 88.3,49.4 89.1,49.5 89.9,49.7 90.7,49.8 
		91.4,50.1 92.1,50.5 92.8,50.9 93.4,51.4 94,52.1 94.5,52.8 94.9,53.7 95.1,54.7 95.3,55.8 95.3,57.1 95.2,58.6 94.9,60.2 
		94.8,61.3 81,61.3 81.9,57.6 90.2,57.6 90.2,57.1 90.2,56.7 90.1,56.2 90.1,55.9 89.9,55.5 89.8,55.2 89.6,54.9 89.4,54.6 
		89.2,54.4 89,54.2 88.7,54.1 88.4,53.9 88.1,53.8 87.8,53.7 87.5,53.7 87.1,53.6 86.8,53.6 86.4,53.7 86.1,53.8 85.8,53.9 85.5,54 
		85.2,54.2 84.9,54.4 84.6,54.6 84.4,54.9 84.2,55.2 84,55.5 83.8,55.8 83.6,56.1 83.5,56.5 83.4,56.9 83.3,57.3 82.6,61.2 
		82.6,61.2 	"/>
	<polyline class="st3" points="82.6,61.2 82.6,61.2 82.5,61.5 82.5,61.9 82.5,62.2 82.6,62.6 82.7,62.9 82.9,63.3 83.1,63.6 
		83.3,64 83.6,64.3 83.9,64.6 84.2,64.9 84.5,65.1 84.8,65.3 85.2,65.5 85.6,65.6 86,65.7 86,65.7 86.5,65.7 86.9,65.8 87.4,65.9 
		87.9,65.9 88.4,65.9 88.9,65.9 89.4,65.9 89.9,65.9 90.4,65.8 90.9,65.7 91.5,65.6 92,65.4 92.5,65.2 93.1,65 93.6,64.7 94.1,64.3 
		93.4,69 93.4,69 93.1,69.1 92.8,69.3 92.5,69.4 92.2,69.5 91.9,69.6 91.6,69.7 91.3,69.8 91,69.8 90.6,69.9 90.3,69.9 89.9,70 
		89.4,70 88.9,70 88.4,70 87.8,70 87.2,70 87.2,70 86.3,70 85.3,69.9 84.4,69.8 83.5,69.6 82.5,69.3 81.6,68.9 80.8,68.5 80,67.9 
		79.3,67.3 78.6,66.5 78.1,65.6 77.6,64.6 77.3,63.5 77.1,62.2 77,60.9 77.1,59.3 77.1,59.3 77.2,58.7 77.3,58 77.5,57.3 77.7,56.5 
		78,55.7 78.3,54.8 78.7,54 79.3,53.2 79.9,52.5 80.6,51.7 81.4,51.1 82.4,50.5 83.5,50.1 84.7,49.7 86.1,49.5 87.6,49.4 87.6,49.4 
		88.3,49.4 89.1,49.5 89.9,49.7 90.7,49.8 91.4,50.1 92.1,50.5 92.8,50.9 93.4,51.4 94,52.1 94.5,52.8 94.9,53.7 95.1,54.7 
		95.3,55.8 95.3,57.1 95.2,58.6 94.9,60.2 94.8,61.3 81,61.3 81.9,57.6 90.2,57.6 90.2,57.6 90.2,57.1 90.2,56.7 90.1,56.2 
		90.1,55.9 89.9,55.5 89.8,55.2 89.6,54.9 89.4,54.6 89.2,54.4 89,54.2 88.7,54.1 88.4,53.9 88.1,53.8 87.8,53.7 87.5,53.7 
		87.1,53.6 87.1,53.6 86.8,53.6 86.4,53.7 86.1,53.8 85.8,53.9 85.5,54 85.2,54.2 84.9,54.4 84.6,54.6 84.4,54.9 84.2,55.2 84,55.5 
		83.8,55.8 83.6,56.1 83.5,56.5 83.4,56.9 83.3,57.3 82.6,61.2 	"/>
	<polygon class="st2" points="127.6,51 127.3,50.8 127.1,50.7 126.8,50.6 126.6,50.4 126.3,50.3 126,50.2 125.6,50.1 125.3,50 
		124.9,49.9 124.6,49.8 124.2,49.7 123.8,49.7 123.3,49.7 122.9,49.6 122.5,49.6 122,49.6 121.5,49.6 121,49.7 120.5,49.7 120,49.8 
		119.5,50 118.9,50.2 118.4,50.4 117.9,50.8 117.4,51.2 116.9,51.7 116.4,52.3 115.9,53 115.5,53.8 115.1,54.8 114.8,55.8 114.5,57 
		114.4,57.7 114.3,58.4 114.2,59 114.3,59.7 114.3,60.3 114.5,60.9 114.6,61.5 114.8,62 115.1,62.6 115.5,63 115.8,63.5 116.3,63.9 
		116.8,64.2 117.4,64.5 118,64.7 118.8,64.9 119,65 119.3,65 119.6,65.1 120,65.1 120.4,65.1 120.9,65.1 121.3,65.1 121.8,65.1 
		122.3,65 122.8,64.9 123.3,64.8 123.7,64.7 124.2,64.5 124.6,64.2 125,63.9 125.4,63.6 124.6,68.6 124.4,68.7 124.3,68.8 124.2,69 
		124,69.1 123.8,69.2 123.5,69.4 123.2,69.5 122.9,69.6 122.5,69.7 122,69.8 121.4,69.9 120.7,70 120,70 119.2,70 118.2,70 
		117.1,70 116.3,69.9 115.4,69.7 114.5,69.4 113.7,69 112.8,68.6 112,68 111.3,67.3 110.6,66.6 110,65.7 109.4,64.8 109,63.7 
		108.6,62.6 108.4,61.3 108.3,60 108.4,58.5 108.6,56.9 108.7,56.1 108.9,55.4 109.1,54.7 109.3,54 109.5,53.3 109.7,52.6 110,52 
		110.2,51.4 110.5,50.8 110.8,50.3 111.1,49.8 111.5,49.3 111.8,48.8 112.2,48.3 112.6,47.9 113,47.5 113.4,47.2 113.8,46.8 
		114.3,46.5 114.8,46.2 115.3,45.9 115.8,45.6 116.3,45.4 116.8,45.2 117.4,45 118,44.9 118.6,44.7 119.3,44.6 119.9,44.5 
		120.6,44.5 121.3,44.4 122,44.4 122.6,44.4 123.2,44.5 123.7,44.5 124.3,44.6 124.8,44.7 125.3,44.8 125.8,44.9 126.3,45 
		126.7,45.1 127.1,45.2 127.5,45.3 127.8,45.4 128,45.5 128.3,45.6 128.4,45.7 128.5,45.7 127.6,51 127.6,51 	"/>
	<polyline class="st3" points="127.6,51 127.6,51 127.3,50.8 127.1,50.7 126.8,50.6 126.6,50.4 126.3,50.3 126,50.2 125.6,50.1 
		125.3,50 124.9,49.9 124.6,49.8 124.2,49.7 123.8,49.7 123.3,49.7 122.9,49.6 122.5,49.6 122,49.6 122,49.6 121.5,49.6 121,49.7 
		120.5,49.7 120,49.8 119.5,50 118.9,50.2 118.4,50.4 117.9,50.8 117.4,51.2 116.9,51.7 116.4,52.3 115.9,53 115.5,53.8 115.1,54.8 
		114.8,55.8 114.5,57 114.5,57 114.4,57.7 114.3,58.4 114.2,59 114.3,59.7 114.3,60.3 114.5,60.9 114.6,61.5 114.8,62 115.1,62.6 
		115.5,63 115.8,63.5 116.3,63.9 116.8,64.2 117.4,64.5 118,64.7 118.8,64.9 118.8,64.9 119,65 119.3,65 119.6,65.1 120,65.1 
		120.4,65.1 120.9,65.1 121.3,65.1 121.8,65.1 122.3,65 122.8,64.9 123.3,64.8 123.7,64.7 124.2,64.5 124.6,64.2 125,63.9 
		125.4,63.6 124.6,68.6 124.6,68.6 124.4,68.7 124.3,68.8 124.2,69 124,69.1 123.8,69.2 123.5,69.4 123.2,69.5 122.9,69.6 
		122.5,69.7 122,69.8 121.4,69.9 120.7,70 120,70 119.2,70 118.2,70 117.1,70 117.1,70 116.3,69.9 115.4,69.7 114.5,69.4 113.7,69 
		112.8,68.6 112,68 111.3,67.3 110.6,66.6 110,65.7 109.4,64.8 109,63.7 108.6,62.6 108.4,61.3 108.3,60 108.4,58.5 108.6,56.9 
		108.6,56.9 108.7,56.1 108.9,55.4 109.1,54.7 109.3,54 109.5,53.3 109.7,52.6 110,52 110.2,51.4 110.5,50.8 110.8,50.3 111.1,49.8 
		111.5,49.3 111.8,48.8 112.2,48.3 112.6,47.9 113,47.5 113.4,47.2 113.8,46.8 114.3,46.5 114.8,46.2 115.3,45.9 115.8,45.6 
		116.3,45.4 116.8,45.2 117.4,45 118,44.9 118.6,44.7 119.3,44.6 119.9,44.5 120.6,44.5 121.3,44.4 122,44.4 122,44.4 122.6,44.4 
		123.2,44.5 123.7,44.5 124.3,44.6 124.8,44.7 125.3,44.8 125.8,44.9 126.3,45 126.7,45.1 127.1,45.2 127.5,45.3 127.8,45.4 
		128,45.5 128.3,45.6 128.4,45.7 128.5,45.7 127.6,51 	"/>
	<polygon class="st2" points="174.1,70 168.9,70 169.2,68 169.2,67.8 168.9,68.1 168.6,68.5 168.3,68.8 168,69 167.6,69.3 
		167.3,69.5 166.9,69.7 166.6,69.8 166.2,70 165.9,70.1 165.5,70.2 165.1,70.2 164.7,70.3 164.4,70.3 164,70.3 163.6,70.3 
		162.6,70.3 161.7,70 160.9,69.7 160.2,69.3 159.5,68.7 158.9,68.1 158.3,67.4 157.9,66.6 157.5,65.8 157.2,64.9 157,63.9 156.9,63 
		156.8,62 156.8,61 156.9,60.1 157.1,59.1 157.4,58 157.7,56.9 158.1,56 158.6,55.1 159.1,54.2 159.6,53.5 160.2,52.8 160.8,52.2 
		161.5,51.6 162.2,51.1 162.9,50.7 163.6,50.4 164.4,50.1 165.1,50 165.9,49.9 166.7,49.8 167.2,49.8 167.7,49.9 168.2,50 
		168.7,50.1 169.1,50.3 169.5,50.4 169.9,50.7 170.2,50.9 170.5,51.1 170.8,51.3 171.1,51.6 171.3,51.8 171.5,52.1 171.6,52.3 
		171.8,52.5 171.9,52.8 171.9,52.8 173.2,45.3 178.4,45.3 174.1,70 174.1,70 	"/>
	<polyline class="st3" points="174.1,70 168.9,70 169.2,68 169.2,67.8 169.2,67.8 168.9,68.1 168.6,68.5 168.3,68.8 168,69 
		167.6,69.3 167.3,69.5 166.9,69.7 166.6,69.8 166.2,70 165.9,70.1 165.5,70.2 165.1,70.2 164.7,70.3 164.4,70.3 164,70.3 
		163.6,70.3 163.6,70.3 162.6,70.3 161.7,70 160.9,69.7 160.2,69.3 159.5,68.7 158.9,68.1 158.3,67.4 157.9,66.6 157.5,65.8 
		157.2,64.9 157,63.9 156.9,63 156.8,62 156.8,61 156.9,60.1 157.1,59.1 157.1,59.1 157.4,58 157.7,56.9 158.1,56 158.6,55.1 
		159.1,54.2 159.6,53.5 160.2,52.8 160.8,52.2 161.5,51.6 162.2,51.1 162.9,50.7 163.6,50.4 164.4,50.1 165.1,50 165.9,49.9 
		166.7,49.8 166.7,49.8 167.2,49.8 167.7,49.9 168.2,50 168.7,50.1 169.1,50.3 169.5,50.4 169.9,50.7 170.2,50.9 170.5,51.1 
		170.8,51.3 171.1,51.6 171.3,51.8 171.5,52.1 171.6,52.3 171.8,52.5 171.9,52.8 171.9,52.8 173.2,45.3 178.4,45.3 174.1,70 	"/>
	<polygon class="st0" points="165.5,65.5 166.1,65.4 166.6,65.3 167,65.2 167.4,65 167.8,64.8 168.2,64.5 168.6,64.2 168.9,63.8 
		169.2,63.4 169.4,63 169.7,62.6 169.9,62.1 170.1,61.7 170.2,61.2 170.4,60.7 170.5,60.2 170.6,59.6 170.6,59.1 170.6,58.6 
		170.6,58 170.5,57.5 170.5,57.1 170.3,56.6 170.2,56.2 170,55.8 169.8,55.4 169.5,55.1 169.2,54.9 168.9,54.7 168.6,54.5 
		168.2,54.4 167.8,54.4 167.3,54.4 166.8,54.5 166.4,54.6 166,54.8 165.6,55.1 165.2,55.4 164.9,55.7 164.6,56.1 164.3,56.5 
		164,56.9 163.8,57.4 163.6,57.8 163.4,58.4 163.2,58.9 163.1,59.4 163,60 162.9,60.8 162.9,61.7 163,62.6 163.3,63.5 163.7,64.3 
		164.2,64.9 164.8,65.3 165.5,65.5 165.5,65.5 	"/>
	<polygon class="st2" points="49.6,65.9 48.8,70 44,70 44.2,69.3 44.3,68.6 44.3,68 44.4,67.8 44.2,68.1 43.9,68.4 43.5,68.7 
		43.1,68.9 42.6,69.2 42.2,69.4 41.7,69.6 41.2,69.8 40.6,70 40.1,70.1 39.5,70.2 39,70.3 38.4,70.4 37.9,70.4 37.3,70.3 36.8,70.2 
		36.2,70.1 35.6,69.9 35,69.6 34.6,69.4 34.1,69 33.8,68.7 33.5,68.3 33.2,68 33,67.6 32.8,67.2 32.6,66.7 32.5,66.3 32.4,65.9 
		32.4,65.5 32.4,65 32.4,64.6 32.4,63.9 32.5,63.2 32.7,62.5 33,61.9 33.3,61.3 33.6,60.7 34,60.2 34.4,59.7 34.9,59.3 35.4,58.9 
		36,58.5 36.6,58.2 37.2,58 37.8,57.8 38.4,57.6 39.1,57.5 39.1,57.5 39.2,57.5 39.4,57.5 39.6,57.4 39.8,57.4 40.1,57.4 40.3,57.3 
		40.7,57.3 41,57.3 41.3,57.2 41.6,57.2 41.9,57.2 42.2,57.1 42.5,57.1 42.8,57.1 43,57.1 43.4,57.1 43.9,57.1 44.3,57.1 44.7,57.1 
		45.1,57.2 45.3,57.2 45.5,57.2 45.6,57.2 45.6,57.1 45.7,56.7 45.8,56.3 45.9,56 45.8,55.6 45.6,55.2 45.4,54.8 45.1,54.6 
		44.7,54.3 44.3,54.1 43.9,54 43.4,54 42.9,54 42.3,54 41.7,54 41.1,54 40.5,54 39.9,54.1 39.3,54.1 38.7,54.2 38.1,54.3 37.6,54.4 
		37.1,54.5 36.6,54.6 36.2,54.7 35.9,54.8 35.6,54.9 35.4,55 36.7,50.5 37.1,50.3 37.6,50.2 38,50 38.5,49.9 38.9,49.8 39.4,49.8 
		39.9,49.7 40.4,49.7 40.9,49.6 41.5,49.6 42.1,49.6 42.6,49.6 43.2,49.6 43.9,49.6 44.5,49.6 45.2,49.6 45.7,49.7 46.3,49.7 
		46.9,49.9 47.5,50 48.1,50.3 48.6,50.5 49.2,50.9 49.7,51.2 50.2,51.6 50.6,52.1 51,52.6 51.3,53.2 51.5,53.8 51.6,54.4 51.6,55.1 
		51.5,55.9 49.6,65.9 49.6,65.9 	"/>
	<polyline class="st3" points="49.6,65.9 48.8,70 44,70 44,70 44.2,69.3 44.3,68.6 44.3,68 44.4,67.8 44.4,67.8 44.2,68.1 
		43.9,68.4 43.5,68.7 43.1,68.9 42.6,69.2 42.2,69.4 41.7,69.6 41.2,69.8 40.6,70 40.1,70.1 39.5,70.2 39,70.3 38.4,70.4 37.9,70.4 
		37.3,70.3 36.8,70.2 36.8,70.2 36.2,70.1 35.6,69.9 35,69.6 34.6,69.4 34.1,69 33.8,68.7 33.5,68.3 33.2,68 33,67.6 32.8,67.2 
		32.6,66.7 32.5,66.3 32.4,65.9 32.4,65.5 32.4,65 32.4,64.6 32.4,64.6 32.4,63.9 32.5,63.2 32.7,62.5 33,61.9 33.3,61.3 33.6,60.7 
		34,60.2 34.4,59.7 34.9,59.3 35.4,58.9 36,58.5 36.6,58.2 37.2,58 37.8,57.8 38.4,57.6 39.1,57.5 39.1,57.5 39.1,57.5 39.2,57.5 
		39.4,57.5 39.6,57.4 39.8,57.4 40.1,57.4 40.3,57.3 40.7,57.3 41,57.3 41.3,57.2 41.6,57.2 41.9,57.2 42.2,57.1 42.5,57.1 
		42.8,57.1 43,57.1 43,57.1 43.4,57.1 43.9,57.1 44.3,57.1 44.7,57.1 45.1,57.2 45.3,57.2 45.5,57.2 45.6,57.2 45.6,57.2 45.6,57.1 
		45.7,56.7 45.8,56.3 45.9,56 45.9,56 45.8,55.6 45.6,55.2 45.4,54.8 45.1,54.6 44.7,54.3 44.3,54.1 43.9,54 43.4,54 43.4,54 
		42.9,54 42.3,54 41.7,54 41.1,54 40.5,54 39.9,54.1 39.3,54.1 38.7,54.2 38.1,54.3 37.6,54.4 37.1,54.5 36.6,54.6 36.2,54.7 
		35.9,54.8 35.6,54.9 35.4,55 36.7,50.5 36.7,50.5 37.1,50.3 37.6,50.2 38,50 38.5,49.9 38.9,49.8 39.4,49.8 39.9,49.7 40.4,49.7 
		40.9,49.6 41.5,49.6 42.1,49.6 42.6,49.6 43.2,49.6 43.9,49.6 44.5,49.6 45.2,49.6 45.2,49.6 45.7,49.7 46.3,49.7 46.9,49.9 
		47.5,50 48.1,50.3 48.6,50.5 49.2,50.9 49.7,51.2 50.2,51.6 50.6,52.1 51,52.6 51.3,53.2 51.5,53.8 51.6,54.4 51.6,55.1 51.5,55.9 
		49.6,65.9 	"/>
	<polygon class="st1" points="45,60.9 45,60.8 44.9,60.7 44.8,60.7 44.6,60.6 44.4,60.6 44.2,60.6 43.9,60.6 43.6,60.6 43.3,60.6 
		43,60.6 42.7,60.7 42.4,60.7 42.1,60.8 41.8,60.8 41.6,60.9 41.4,60.9 41.2,61 41.1,61 40.9,61.1 40.7,61.2 40.4,61.3 40.2,61.4 
		39.9,61.6 39.7,61.7 39.4,61.9 39.2,62.1 38.9,62.3 38.7,62.6 38.5,62.8 38.4,63.1 38.3,63.4 38.2,63.7 38.2,64.3 38.3,64.8 
		38.5,65.2 38.8,65.5 39,65.7 39.4,65.8 39.7,65.8 40,65.9 40.5,65.8 41,65.8 41.5,65.7 42,65.6 42.3,65.5 42.7,65.3 43,65.1 
		43.3,64.9 43.6,64.7 43.8,64.5 44,64.3 44.1,64.1 44.3,63.8 44.4,63.6 44.5,63.4 44.5,63.2 44.7,62.6 44.8,62 44.9,61.4 45,60.9 
		45,60.9 	"/>
	<polygon class="st2" points="9.8,70 4.7,70 9,45.3 17.9,45.3 18.8,60 24.9,45.3 34.3,45.3 29.9,70 24.7,70 28,51.5 27.8,51.5 
		20.1,70 14.3,70 14.3,69.3 14.1,67.2 14,64.3 13.8,60.9 13.6,57.5 13.4,54.6 13.3,52.4 13.2,51.5 13.2,51.5 13.1,51.5 13,51.5 
		13,51.5 9.8,70 9.8,70 	"/>
	<polyline class="st3" points="9.8,70 4.7,70 9,45.3 17.9,45.3 18.8,60 24.9,45.3 34.3,45.3 29.9,70 24.7,70 28,51.5 27.8,51.5 
		20.1,70 14.3,70 14.3,70 14.3,69.3 14.1,67.2 14,64.3 13.8,60.9 13.6,57.5 13.4,54.6 13.3,52.4 13.2,51.5 13.2,51.5 13.2,51.5 
		13.1,51.5 13,51.5 13,51.5 9.8,70 	"/>
	<polygon class="st2" points="143.3,65.9 142.5,70 137.8,70 137.8,69.3 137.8,68.6 137.8,68.1 137.9,67.9 137.6,68.1 137.3,68.4 
		137,68.7 136.6,69 136.2,69.2 135.8,69.4 135.3,69.7 134.8,69.8 134.3,70 133.8,70.1 133.3,70.2 132.7,70.3 132.2,70.4 131.7,70.4 
		131.1,70.3 130.6,70.2 130,70.1 129.4,69.9 128.8,69.6 128.3,69.4 127.9,69 127.6,68.7 127.3,68.3 127,68 126.8,67.6 126.6,67.2 
		126.4,66.7 126.3,66.3 126.3,65.9 126.2,65.5 126.2,65 126.2,64.6 126.2,63.9 126.3,63.2 126.5,62.5 126.7,61.9 127,61.3 
		127.4,60.7 127.8,60.2 128.2,59.7 128.7,59.3 129.2,58.9 129.8,58.5 130.4,58.2 130.9,58 131.6,57.8 132.2,57.6 132.8,57.5 
		132.9,57.5 133,57.5 133.1,57.5 133.3,57.4 133.5,57.4 133.8,57.4 134.1,57.3 134.4,57.3 134.7,57.3 135,57.2 135.4,57.2 
		135.7,57.2 136,57.1 136.2,57.1 136.5,57.1 136.7,57.1 137.2,57.1 137.6,57.1 138.1,57.1 138.5,57.1 138.8,57.2 139.1,57.2 
		139.3,57.2 139.4,57.2 139.4,57.1 139.5,56.7 139.5,56.3 139.6,56 139.5,55.6 139.3,55.2 139.1,54.8 138.8,54.6 138.5,54.3 
		138.1,54.1 137.7,54 137.2,54 136.7,54 136.1,54 135.5,54 134.9,54 134.3,54 133.7,54.1 133.1,54.1 132.5,54.2 131.9,54.3 
		131.4,54.4 130.9,54.5 130.4,54.6 130,54.7 129.7,54.8 129.4,54.9 129.2,55 130.5,50.5 131,50.3 131.4,50.2 131.8,50 132.3,49.9 
		132.8,49.8 133.2,49.8 133.7,49.7 134.2,49.7 134.8,49.6 135.3,49.6 135.8,49.6 136.4,49.6 137,49.6 137.6,49.6 138.3,49.6 
		138.9,49.6 139.4,49.7 140,49.7 140.6,49.9 141.2,50 141.8,50.3 142.4,50.5 142.9,50.9 143.5,51.2 143.9,51.6 144.4,52.1 
		144.7,52.6 145,53.2 145.2,53.8 145.4,54.4 145.4,55.1 145.3,55.9 143.3,65.9 143.3,65.9 	"/>
	<polygon class="st2" points="142.5,70.2 142.6,70.1 143.4,65.9 143.2,65.8 142.4,70 142.5,69.9 142.5,70.2 142.6,70.2 142.6,70.1 
		142.5,70.2 142.5,70.2 	"/>
	<polygon class="st2" points="137.7,70 137.8,70.2 142.5,70.2 142.5,69.9 137.8,69.9 137.9,70 137.7,70 137.6,70.2 137.8,70.2 
		137.7,70 137.7,70 	"/>
	<polygon class="st2" points="138,67.9 137.8,67.8 137.7,68.1 137.7,68.6 137.7,69.3 137.7,70 137.9,70 137.9,69.3 138,68.6 
		137.9,68.1 137.9,67.9 137.8,67.8 138,67.9 138,67.9 	"/>
	<polygon class="st2" points="130.6,70.4 130.6,70.4 131.1,70.4 131.7,70.5 132.2,70.5 132.7,70.4 133.3,70.4 133.8,70.3 
		134.3,70.1 134.9,70 135.3,69.8 135.8,69.5 136.3,69.3 136.7,69 137.1,68.8 137.4,68.5 137.7,68.2 138,67.9 137.8,67.8 137.5,68.1 
		137.3,68.3 136.9,68.6 136.6,68.9 136.2,69.1 135.7,69.3 135.3,69.5 134.8,69.7 134.3,69.9 133.8,70 133.2,70.1 132.7,70.2 
		132.2,70.2 131.7,70.3 131.1,70.2 130.7,70.1 130.7,70.1 130.6,70.4 130.6,70.4 	"/>
	<polygon class="st2" points="126,64.6 126,64.6 126.1,65 126.1,65.5 126.2,65.9 126.2,66.3 126.3,66.8 126.5,67.2 126.7,67.6 
		126.9,68 127.2,68.4 127.5,68.8 127.8,69.1 128.3,69.4 128.8,69.7 129.3,70 129.9,70.2 130.6,70.4 130.7,70.1 130,70 129.4,69.8 
		128.9,69.5 128.4,69.3 128,69 127.7,68.6 127.3,68.3 127.1,67.9 126.9,67.5 126.7,67.1 126.6,66.7 126.5,66.3 126.4,65.9 
		126.3,65.5 126.3,65 126.3,64.6 126.3,64.6 126,64.6 126,64.6 	"/>
	<polygon class="st2" points="132.8,57.4 132.8,57.4 132.2,57.5 131.5,57.7 130.9,57.9 130.3,58.1 129.7,58.4 129.1,58.8 
		128.6,59.2 128.1,59.7 127.7,60.1 127.3,60.7 126.9,61.2 126.6,61.9 126.4,62.5 126.2,63.2 126.1,63.9 126,64.6 126.3,64.6 
		126.3,63.9 126.4,63.2 126.6,62.6 126.9,61.9 127.1,61.3 127.5,60.8 127.9,60.3 128.3,59.8 128.8,59.4 129.3,59 129.8,58.7 
		130.4,58.4 131,58.1 131.6,57.9 132.2,57.7 132.8,57.6 132.8,57.6 132.8,57.4 132.8,57.4 	"/>
	<polygon class="st2" points="136.7,57 136.7,57 136.5,57 136.2,57 136,57 135.7,57.1 135.4,57.1 135,57.1 134.7,57.1 134.4,57.2 
		134.1,57.2 133.8,57.3 133.5,57.3 133.3,57.3 133.1,57.3 132.9,57.4 132.9,57.4 132.8,57.4 132.8,57.6 132.9,57.6 133,57.6 
		133.1,57.6 133.3,57.5 133.5,57.5 133.8,57.5 134.1,57.5 134.4,57.4 134.7,57.4 135,57.3 135.4,57.3 135.7,57.3 136,57.3 
		136.2,57.2 136.5,57.2 136.7,57.2 136.7,57.2 136.7,57 136.7,57 	"/>
	<polygon class="st2" points="139.3,57.2 139.4,57.1 139.3,57.1 139.1,57.1 138.8,57.1 138.5,57 138.1,57 137.6,57 137.2,57 
		136.7,57 136.7,57.2 137.2,57.2 137.6,57.2 138.1,57.3 138.5,57.3 138.8,57.3 139.1,57.3 139.3,57.3 139.4,57.3 139.5,57.2 
		139.4,57.3 139.5,57.3 139.5,57.2 139.3,57.2 139.3,57.2 	"/>
	<polygon class="st2" points="139.5,56 139.4,56 139.4,56.3 139.4,56.7 139.3,57.1 139.3,57.2 139.5,57.2 139.5,57.1 139.6,56.8 
		139.6,56.3 139.7,56 139.7,56 139.5,56 139.5,56 	"/>
	<polygon class="st2" points="137.2,54.1 137.2,54.1 137.6,54.1 138,54.3 138.4,54.4 138.7,54.7 139,54.9 139.2,55.2 139.4,55.6 
		139.5,56 139.7,56 139.6,55.5 139.5,55.1 139.2,54.8 138.9,54.5 138.5,54.2 138.1,54 137.7,53.9 137.2,53.9 137.2,53.9 137.2,54.1 
		137.2,54.1 	"/>
	<polygon class="st2" points="129.1,55 129.3,55.1 129.5,55 129.7,54.9 130.1,54.8 130.5,54.7 130.9,54.6 131.4,54.5 132,54.4 
		132.5,54.3 133.1,54.2 133.7,54.2 134.3,54.1 134.9,54.1 135.5,54.1 136.1,54.1 136.7,54.1 137.2,54.1 137.2,53.9 136.7,53.9 
		136.1,53.8 135.5,53.8 134.9,53.9 134.3,53.9 133.7,54 133.1,54 132.5,54.1 131.9,54.2 131.4,54.3 130.9,54.4 130.4,54.4 130,54.6 
		129.7,54.7 129.4,54.8 129.1,54.9 129.3,55.1 129.1,55 129.1,55 	"/>
	<polygon class="st2" points="130.5,50.4 130.4,50.5 129.1,55 129.3,55.1 130.7,50.5 130.6,50.6 130.5,50.4 130.4,50.4 130.4,50.5 
		130.5,50.4 130.5,50.4 	"/>
	<polygon class="st2" points="138.9,49.5 138.9,49.5 138.3,49.5 137.6,49.4 137,49.4 136.4,49.4 135.8,49.4 135.3,49.5 134.8,49.5 
		134.2,49.5 133.7,49.6 133.2,49.7 132.7,49.7 132.3,49.8 131.8,49.9 131.4,50 130.9,50.2 130.5,50.4 130.6,50.6 131,50.4 
		131.4,50.3 131.8,50.1 132.3,50 132.8,50 133.2,49.9 133.7,49.8 134.2,49.8 134.8,49.7 135.3,49.7 135.8,49.7 136.4,49.7 137,49.7 
		137.6,49.7 138.3,49.7 138.9,49.7 138.9,49.7 138.9,49.5 138.9,49.5 	"/>
	<polygon class="st2" points="145.4,55.9 145.4,55.9 145.5,55.1 145.5,54.4 145.3,53.8 145.1,53.1 144.8,52.5 144.5,52 144,51.5 
		143.5,51.1 143,50.8 142.4,50.4 141.8,50.2 141.2,49.9 140.6,49.8 140,49.6 139.4,49.5 138.9,49.5 138.9,49.7 139.4,49.8 140,49.9 
		140.6,50 141.2,50.2 141.7,50.4 142.3,50.7 142.9,51 143.4,51.3 143.9,51.7 144.3,52.2 144.6,52.7 144.9,53.2 145.1,53.8 
		145.3,54.4 145.3,55.1 145.2,55.9 145.2,55.9 145.4,55.9 145.4,55.9 	"/>
	<polygon class="st2" points="143.4,65.9 143.4,65.9 145.4,55.9 145.2,55.9 143.2,65.8 143.2,65.8 143.4,65.9 143.4,65.9 	"/>
	<polygon class="st0" points="138.7,60.9 138.7,60.8 138.6,60.7 138.5,60.7 138.3,60.6 138.1,60.6 137.8,60.6 137.5,60.6 
		137.3,60.6 137,60.6 136.7,60.7 136.4,60.7 136.1,60.7 135.8,60.8 135.5,60.8 135.3,60.9 135.1,60.9 135,60.9 134.8,61 134.6,61.1 
		134.4,61.1 134.2,61.2 134,61.4 133.7,61.5 133.5,61.7 133.2,61.8 133,62 132.8,62.2 132.5,62.5 132.4,62.8 132.2,63 132.1,63.3 
		132.1,63.7 132.1,64.3 132.1,64.8 132.3,65.2 132.5,65.5 132.8,65.7 133.1,65.8 133.5,65.8 133.8,65.9 134.3,65.8 134.9,65.8 
		135.4,65.7 135.8,65.6 136.2,65.4 136.6,65.2 136.9,65 137.2,64.8 137.5,64.6 137.7,64.4 137.9,64.1 138.1,63.9 138.2,63.7 
		138.3,63.4 138.4,63.2 138.4,63 138.5,62.5 138.6,61.9 138.7,61.4 138.7,60.9 138.7,60.9 	"/>
	<polygon class="st2" points="177.6,67.5 177.7,67 177.8,66.5 178.1,66.1 178.4,65.7 178.8,65.3 179.2,65.1 179.7,65 180.3,64.9 
		180.8,65 181.3,65.1 181.7,65.3 182.1,65.7 182.5,66.1 182.7,66.5 182.9,67 182.9,67.5 182.3,67.5 182.3,67.1 182.2,66.7 182,66.3 
		181.8,66 181.5,65.7 181.1,65.6 180.7,65.4 180.3,65.4 179.8,65.4 179.4,65.6 179.1,65.7 178.8,66 178.5,66.3 178.3,66.7 
		178.2,67.1 178.2,67.5 177.6,67.5 177.6,67.5 	"/>
	<polygon class="st2" points="179.3,67.5 179.3,66.3 180.4,66.3 180.6,66.3 180.8,66.4 180.9,66.4 181.1,66.5 181.2,66.6 
		181.3,66.7 181.3,66.9 181.3,67 181.3,67.2 181.3,67.3 181.2,67.4 181.2,67.5 180.4,67.5 180.4,67.4 180.6,67.4 180.7,67.4 
		180.8,67.3 180.9,67.3 180.9,67.2 180.9,67.1 180.9,67 180.9,66.9 180.9,66.8 180.8,66.8 180.8,66.8 180.7,66.7 180.6,66.7 
		180.5,66.7 180.4,66.7 179.8,66.7 179.8,67.5 179.3,67.5 179.3,67.5 	"/>
	<polygon class="st2" points="177.6,67.5 177.6,67.6 177.7,68.1 177.8,68.6 178.1,69.1 178.4,69.5 178.8,69.8 179.2,70 179.7,70.2 
		180.3,70.2 180.8,70.2 181.3,70 181.7,69.8 182.1,69.5 182.5,69.1 182.7,68.6 182.9,68.1 182.9,67.6 182.9,67.5 182.3,67.5 
		182.4,67.6 182.3,68 182.2,68.4 182,68.8 181.8,69.1 181.5,69.4 181.1,69.6 180.7,69.7 180.3,69.8 179.8,69.7 179.4,69.6 
		179.1,69.4 178.8,69.1 178.5,68.8 178.3,68.4 178.2,68 178.2,67.6 178.2,67.5 177.6,67.5 177.6,67.5 	"/>
	<polygon class="st2" points="179.3,67.5 179.3,68.6 179.8,68.6 179.8,67.7 180.3,67.7 180.8,68.6 181.2,68.6 180.6,67.7 
		180.8,67.7 180.9,67.6 181,67.6 181.1,67.5 181.2,67.5 180.4,67.5 180.3,67.5 179.8,67.5 179.8,67.5 179.3,67.5 179.3,67.5 	"/>
	<path class="st3" d="M177.6,67.6L177.6,67.6l0.1-0.5l0.2-0.5l0.3-0.5l0.3-0.4l0.4-0.3l0.5-0.2l0.5-0.2l0.5-0.1l0,0l0.5,0.1l0.5,0.2
		l0.5,0.2l0.4,0.3l0.3,0.4l0.3,0.5l0.2,0.5l0.1,0.5l0,0l-0.1,0.5l-0.2,0.5l-0.3,0.5l-0.3,0.4l-0.4,0.3l-0.5,0.2l-0.5,0.2l-0.5,0.1
		l0,0l-0.5-0.1l-0.5-0.2l-0.5-0.2l-0.4-0.3l-0.3-0.4l-0.3-0.5l-0.2-0.5L177.6,67.6 M179.8,68.6h-0.5v-2.3h1l0,0l0.2,0l0.2,0l0.2,0.1
		l0.1,0.1l0.1,0.1l0.1,0.1l0,0.1l0,0.1l0,0l0,0.2l0,0.1l-0.1,0.1l-0.1,0.1l-0.1,0.1l-0.1,0l-0.1,0h-0.1l0.6,0.9h-0.4l-0.6-0.9h-0.5
		V68.6 M180.3,67.5L180.3,67.5l0.2,0l0.1,0l0.1,0l0.1,0l0.1-0.1l0-0.1l0-0.1V67l0,0l0-0.1l0-0.1l-0.1,0l-0.1,0l-0.1,0l-0.1,0h-0.1
		h-0.1h-0.6v0.8H180.3 M180.3,69.8L180.3,69.8l0.4,0l0.4-0.1l0.4-0.2l0.3-0.3l0.2-0.3l0.2-0.4l0.1-0.4l0-0.5l0,0l0-0.5l-0.1-0.4
		l-0.2-0.4l-0.2-0.3l-0.3-0.3l-0.4-0.2l-0.4-0.1l-0.4,0l0,0l-0.4,0l-0.4,0.1l-0.4,0.2l-0.3,0.3l-0.2,0.3l-0.2,0.4l-0.1,0.4l0,0.5
		l0,0l0,0.5l0.1,0.4l0.2,0.4l0.2,0.3l0.3,0.3l0.4,0.2l0.4,0.1L180.3,69.8"/>
	<polygon class="st2" points="144.7,70 150,70 150,70 151.9,59.3 152,58.9 152.1,58.5 152.2,58.1 152.4,57.6 152.6,57.2 152.8,56.8 
		153.1,56.5 153.4,56.1 153.7,55.8 154.1,55.5 154.5,55.2 155,55 155.5,54.8 156.2,54.6 156.8,54.5 157.5,54.5 157.8,54.5 158,54.5 
		158,54.5 158,54.5 158.9,49.6 158.3,49.7 157.8,49.7 157.4,49.8 156.9,49.9 156.5,50.1 156.1,50.3 155.7,50.5 155.4,50.7 155,51 
		154.7,51.2 154.4,51.5 154.1,51.8 153.8,52.2 153.5,52.5 153.2,52.9 153,53.2 153.5,49.8 148.2,49.8 144.7,70 144.7,70 144.7,70 	
		"/>
	<polyline class="st3" points="144.7,70 150,70 150,70 151.9,59.3 151.9,59.3 152,58.9 152.1,58.5 152.2,58.1 152.4,57.6 
		152.6,57.2 152.8,56.8 153.1,56.5 153.4,56.1 153.7,55.8 154.1,55.5 154.5,55.2 155,55 155.5,54.8 156.2,54.6 156.8,54.5 
		157.5,54.5 157.5,54.5 157.8,54.5 158,54.5 158,54.5 158,54.5 158.9,49.6 158.9,49.6 158.3,49.7 157.8,49.7 157.4,49.8 156.9,49.9 
		156.5,50.1 156.1,50.3 155.7,50.5 155.4,50.7 155,51 154.7,51.2 154.4,51.5 154.1,51.8 153.8,52.2 153.5,52.5 153.2,52.9 153,53.2 
		153.5,49.8 148.2,49.8 144.7,70 144.7,70 	"/>
	<polygon class="st2" points="94.7,70 100,70 100.1,70 101.9,59.3 102,58.9 102.1,58.5 102.2,58.1 102.3,57.7 102.5,57.3 102.7,57 
		102.9,56.6 103.2,56.3 103.5,56 103.8,55.8 104.2,55.5 104.7,55.3 105.2,55.1 105.8,55 106.4,54.9 107.2,54.8 107.2,54.8 
		107.3,54.9 107.4,54.9 107.5,54.9 107.6,54.9 107.7,54.9 107.7,54.9 107.7,54.9 107.7,54.9 107.8,54.6 107.9,54.3 108,53.9 
		108.1,53.4 108.2,52.9 108.4,52.3 108.6,51.8 108.7,51.4 108.9,51.1 109.1,50.7 109.3,50.4 109.5,50.1 109.6,49.9 109.7,49.8 
		109.7,49.7 109.7,49.7 109.6,49.7 109.5,49.7 109.4,49.7 109.3,49.7 109.1,49.6 109,49.6 108.9,49.6 108.3,49.7 107.7,49.7 
		107.3,49.8 106.8,49.9 106.4,50.1 106,50.3 105.6,50.4 105.3,50.7 105,50.9 104.6,51.2 104.4,51.5 104.1,51.8 103.8,52.1 
		103.5,52.5 103.3,52.9 103,53.2 103.6,49.8 98.2,49.8 94.7,70 94.7,70 94.7,70 	"/>
	<polyline class="st3" points="94.7,70 100,70 100.1,70 101.9,59.3 101.9,59.3 102,58.9 102.1,58.5 102.2,58.1 102.3,57.7 
		102.5,57.3 102.7,57 102.9,56.6 103.2,56.3 103.5,56 103.8,55.8 104.2,55.5 104.7,55.3 105.2,55.1 105.8,55 106.4,54.9 107.2,54.8 
		107.2,54.8 107.2,54.8 107.3,54.9 107.4,54.9 107.5,54.9 107.6,54.9 107.7,54.9 107.7,54.9 107.7,54.9 107.7,54.9 107.7,54.9 
		107.8,54.6 107.9,54.3 108,53.9 108.1,53.4 108.2,52.9 108.4,52.3 108.6,51.8 108.6,51.8 108.7,51.4 108.9,51.1 109.1,50.7 
		109.3,50.4 109.5,50.1 109.6,49.9 109.7,49.8 109.7,49.7 109.7,49.7 109.7,49.7 109.6,49.7 109.5,49.7 109.4,49.7 109.3,49.7 
		109.1,49.6 109,49.6 108.9,49.6 108.9,49.6 108.3,49.7 107.7,49.7 107.3,49.8 106.8,49.9 106.4,50.1 106,50.3 105.6,50.4 
		105.3,50.7 105,50.9 104.6,51.2 104.4,51.5 104.1,51.8 103.8,52.1 103.5,52.5 103.3,52.9 103,53.2 103.6,49.8 98.2,49.8 94.7,70 
		94.7,70 	"/>
	<polygon class="st0" points="177.7,89.9 177.7,89.8 177.8,89.4 178.1,88.9 178.4,88.5 178.8,88.2 179.2,88 179.7,87.9 180.3,87.8 
		180.8,87.9 181.3,88 181.7,88.2 182.1,88.5 182.5,88.9 182.7,89.4 182.9,89.8 182.9,89.9 182.3,89.9 182.2,89.5 182,89.2 
		181.8,88.8 181.5,88.6 181.1,88.4 180.7,88.2 180.3,88.2 179.8,88.2 179.4,88.4 179.1,88.6 178.8,88.8 178.5,89.2 178.3,89.5 
		178.2,89.9 177.7,89.9 177.7,89.9 	"/>
	<polygon class="st0" points="179.3,89.9 179.3,89.3 180.4,89.3 180.6,89.3 180.8,89.3 180.9,89.3 181.1,89.4 181.2,89.5 
		181.3,89.6 181.3,89.7 181.3,89.9 180.9,89.9 180.9,89.8 180.9,89.7 180.9,89.7 180.8,89.6 180.8,89.6 180.7,89.6 180.6,89.5 
		180.5,89.5 180.4,89.5 179.8,89.5 179.8,89.9 179.3,89.9 179.3,89.9 	"/>
	<polygon class="st0" points="177.6,90.3 177.7,89.9 178.2,89.9 178.2,89.9 178.2,90.3 177.6,90.3 177.6,90.3 	"/>
	<polygon class="st0" points="179.3,90.3 179.3,89.9 179.8,89.9 179.8,90.3 180.3,90.3 180.4,90.3 180.6,90.2 180.7,90.2 
		180.8,90.2 180.9,90.1 180.9,90 180.9,90 180.9,89.9 181.3,89.9 181.3,89.9 181.3,90 181.3,90.2 181.2,90.3 181.1,90.3 179.3,90.3 
		179.3,90.3 	"/>
	<polygon class="st0" points="182.4,90.3 182.3,89.9 182.3,89.9 182.9,89.9 182.9,90.3 182.4,90.3 182.4,90.3 	"/>
	<polygon class="st0" points="177.6,90.3 177.6,90.4 177.7,90.9 177.8,91.4 178.1,91.9 178.4,92.3 178.8,92.6 179.2,92.8 179.7,93 
		180.3,93.1 180.8,93 181.3,92.8 181.7,92.6 182.1,92.3 182.5,91.9 182.7,91.4 182.9,90.9 182.9,90.4 182.9,90.3 182.4,90.3 
		182.4,90.4 182.3,90.8 182.2,91.3 182,91.6 181.8,91.9 181.5,92.2 181.1,92.4 180.7,92.5 180.3,92.6 179.8,92.5 179.4,92.4 
		179.1,92.2 178.8,91.9 178.5,91.6 178.3,91.3 178.2,90.8 178.2,90.4 178.2,90.3 177.6,90.3 177.6,90.3 	"/>
	<polygon class="st0" points="179.3,90.3 179.3,91.4 179.8,91.4 179.8,90.5 180.3,90.5 180.8,91.4 181.2,91.4 180.6,90.5 
		180.8,90.5 180.9,90.4 181,90.4 181.1,90.3 181.1,90.3 179.3,90.3 179.3,90.3 	"/>
</g>
</svg>
