<?xml version="1.0" encoding="utf-8"?>
<!-- Generator: Adobe Illustrator 19.0.0, SVG Export Plug-In . SVG Version: 6.00 Build 0)  -->
<svg version="1.1" id="Layer_1" xmlns="http://www.w3.org/2000/svg" xmlns:xlink="http://www.w3.org/1999/xlink" x="0px" y="0px"
	 viewBox="0 0 46 48" style="enable-background:new 0 0 46 48;" xml:space="preserve">
<style type="text/css">
	.st0{fill:#71A2BF;}
	.st1{fill:none;}
</style>
<path class="st0" d="M21,43c0-1.1,0.9-2,2-2s2,0.9,2,2s-0.9,2-2,2S21,44.1,21,43 M25,4h-4c-0.6,0-1,0.4-1,1c0,0.6,0.4,1,1,1h4
	c0.6,0,1-0.4,1-1C26,4.4,25.6,4,25,4 M39.4,21.2l-5.3,4.4l-2.3-2.4c-0.4-0.4-1.1-0.3-1.4,0.1c-0.3,0.4-0.3,0.9,0,1.3l3,3
	c0.4,0.4,1,0.4,1.4,0.1l6-5c0.4-0.4,0.5-1,0.1-1.4C40.4,20.9,39.8,20.9,39.4,21.2 M46,24c0,5.1-3.9,9.4-9,10v11c0,1.7-1.3,3-3,3H12
	c-1.7,0-3-1.3-3-3V3c0-1.7,1.3-3,3-3h22c1.7,0,3,1.3,3,3v11.1C42.1,14.6,46,18.9,46,24 M11,8h24V3c0-0.6-0.4-1-1-1H12
	c-0.6,0-1,0.4-1,1V8z M35,40H11v5c0,0.6,0.4,1,1,1h22c0.6,0,1-0.4,1-1V40z M35,34c-5.5-0.6-9.5-5.5-9-10.9c0.5-4.7,4.2-8.5,9-9V10
	H11v28h24V34z M44,24c0-4.4-3.6-8-8-8s-8,3.6-8,8s3.6,8,8,8S44,28.4,44,24"/>
<rect x="9" class="st1" width="37" height="48"/>
</svg>
