<?xml version="1.0" encoding="utf-8"?>
<!-- Generator: Adobe Illustrator 19.0.0, SVG Export Plug-In . SVG Version: 6.00 Build 0)  -->
<svg version="1.1" id="Layer_1" xmlns="http://www.w3.org/2000/svg" xmlns:xlink="http://www.w3.org/1999/xlink" x="0px" y="0px"
	 viewBox="0 0 451.1 110.5" style="enable-background:new 0 0 451.1 110.5;" xml:space="preserve">
<style type="text/css">
	.st0{clip-path:url(#SVGID_2_);fill:url(#SVGID_3_);}
	.st1{clip-path:url(#SVGID_2_);fill:url(#SVGID_4_);}
	.st2{clip-path:url(#SVGID_2_);fill:url(#SVGID_5_);}
	.st3{clip-path:url(#SVGID_2_);fill:url(#SVGID_6_);}
</style>
<g>
	<g id="PLAY">
		<defs>
			<path id="SVGID_1_" d="M72.5,39.9L49.4,26.6c0,0-42-24.3-44.5-25.7C2.5-0.5,0,0.4,0,3.4c0,5,0,51.8,0,51.8s0,50.6,0,52.9
				c0,2.2,1.8,3.2,3.9,2c2.1-1.2,45.5-26.3,45.5-26.3l23.1-13.3c0,0,19.6-11.3,22.2-12.8c2.6-1.5,2.4-3.6,0.2-4.7
				C92.6,51.6,72.5,39.9,72.5,39.9z"/>
		</defs>
		<clipPath id="SVGID_2_">
			<use xlink:href="#SVGID_1_"  style="overflow:visible;"/>
		</clipPath>
		<linearGradient id="SVGID_3_" gradientUnits="userSpaceOnUse" x1="28.5668" y1="-1.4956" x2="28.5668" y2="111.8081">
			<stop  offset="0" style="stop-color:#257CB0"/>
			<stop  offset="0.2863" style="stop-color:#4A93B5"/>
			<stop  offset="0.767" style="stop-color:#78BCBB"/>
			<stop  offset="1" style="stop-color:#89CFBD"/>
		</linearGradient>
		<polygon class="st0" points="0,-1.5 0,55.2 0,111.8 57.1,55.2 		"/>
		<linearGradient id="SVGID_4_" gradientUnits="userSpaceOnUse" x1="0" y1="26.6248" x2="72.4795" y2="26.6248">
			<stop  offset="0" style="stop-color:#52C1AD"/>
			<stop  offset="1" style="stop-color:#DEE89A"/>
		</linearGradient>
		<polygon class="st1" points="72.5,39.9 49.4,26.6 0,-1.9 0,-1.5 57.1,55.2 		"/>
		<linearGradient id="SVGID_5_" gradientUnits="userSpaceOnUse" x1="36.2392" y1="55.1572" x2="36.2392" y2="112.2192">
			<stop  offset="0" style="stop-color:#EC413D"/>
			<stop  offset="0.1668" style="stop-color:#DA4452"/>
			<stop  offset="0.5748" style="stop-color:#B0487A"/>
			<stop  offset="0.8619" style="stop-color:#954A92"/>
			<stop  offset="1" style="stop-color:#8A4A9D"/>
		</linearGradient>
		<polygon class="st2" points="0,111.8 0,112.2 49.4,83.7 72.5,70.4 57.1,55.2 		"/>
		<linearGradient id="SVGID_6_" gradientUnits="userSpaceOnUse" x1="77.9845" y1="39.9404" x2="77.9845" y2="70.3721">
			<stop  offset="0" style="stop-color:#F58879"/>
			<stop  offset="0.1194" style="stop-color:#F69079"/>
			<stop  offset="0.7128" style="stop-color:#FCB877"/>
			<stop  offset="1" style="stop-color:#FEC874"/>
		</linearGradient>
		<polygon class="st3" points="72.5,39.9 57.1,55.2 72.5,70.4 98.8,55.2 		"/>
	</g>
	<g>
		<path d="M359.7,77.3c-2.1,0-4.1-0.4-5.9-1.2c-1.8-0.8-3.3-2-4.5-3.7H349c0.2,1.9,0.4,3.7,0.4,5.5v13.6h-5V43.8h4.1l0.7,4.5h0.2
			c1.3-1.8,2.8-3.1,4.5-3.9c1.7-0.8,3.7-1.2,5.9-1.2c4.4,0,7.7,1.5,10.1,4.5c2.4,3,3.6,7.2,3.6,12.6c0,5.4-1.2,9.6-3.6,12.6
			C367.3,75.8,364,77.3,359.7,77.3z M359,47.4c-3.4,0-5.8,0.9-7.3,2.8c-1.5,1.9-2.3,4.8-2.3,8.9v1.1c0,4.6,0.8,7.9,2.3,9.9
			c1.5,2,4,3,7.4,3c2.8,0,5.1-1.2,6.7-3.5c1.6-2.3,2.4-5.5,2.4-9.5c0-4.1-0.8-7.3-2.4-9.5C364.2,48.5,361.9,47.4,359,47.4z"/>
		<path d="M384.9,76.7h-5V29.9h5V76.7z"/>
		<path d="M413.6,76.7l-1-4.7h-0.2c-1.6,2.1-3.3,3.5-4.9,4.2c-1.6,0.7-3.7,1.1-6.1,1.1c-3.3,0-5.8-0.8-7.7-2.5s-2.8-4.1-2.8-7.2
			c0-6.7,5.3-10.1,16-10.5l5.6-0.2v-2c0-2.6-0.6-4.5-1.7-5.7c-1.1-1.2-2.9-1.8-5.3-1.8c-2.7,0-5.9,0.8-9.3,2.5l-1.5-3.8
			c1.6-0.9,3.4-1.6,5.3-2.1c1.9-0.5,3.9-0.8,5.8-0.8c3.9,0,6.8,0.9,8.7,2.6c1.9,1.7,2.8,4.5,2.8,8.4v22.5H413.6z M402.3,73.2
			c3.1,0,5.5-0.9,7.3-2.6c1.8-1.7,2.7-4.1,2.7-7.2v-3l-5,0.2c-4,0.1-6.8,0.8-8.6,1.9c-1.8,1.1-2.6,2.8-2.6,5.1
			c0,1.8,0.5,3.2,1.6,4.1C398.9,72.7,400.4,73.2,402.3,73.2z"/>
		<path d="M420.2,43.8h5.3l7.2,18.8c1.6,4.3,2.6,7.4,2.9,9.3h0.2c0.3-1,0.8-2.8,1.6-5.2c0.8-2.5,3.6-10.1,8.2-22.8h5.4L437,81.3
			c-1.4,3.7-3,6.3-4.9,7.9c-1.9,1.6-4.2,2.3-6.9,2.3c-1.5,0-3-0.2-4.5-0.5v-4c1.1,0.2,2.3,0.4,3.7,0.4c3.4,0,5.9-1.9,7.3-5.8
			l1.8-4.7L420.2,43.8z"/>
	</g>
	<g>
		<path d="M267.2,46.8c1.6,1.3,4.9,4.1,4.9,9.3c0,5.1-2.9,7.5-5.8,9.8c-0.9,0.9-1.9,1.9-1.9,3.4c0,1.5,1,2.3,1.8,3l2.5,1.9
			c3,2.6,5.8,4.9,5.8,9.7c0,6.5-6.3,13-18.1,13c-10,0-14.8-4.8-14.8-9.9c0-2.5,1.2-6,5.3-8.4c4.3-2.6,10.1-3,13.2-3.2
			c-1-1.2-2.1-2.5-2.1-4.7c0-1.2,0.3-1.9,0.7-2.7c-0.8,0.1-1.5,0.1-2.2,0.1c-7.3,0-11.4-5.4-11.4-10.8c0-3.2,1.4-6.7,4.4-9.2
			c3.9-3.2,8.6-3.8,12.3-3.8h14.2l-4.4,2.5H267.2z M262.3,77.4c-0.6-0.1-0.9-0.1-1.6-0.1c-0.6,0-4.3,0.1-7.2,1.1
			c-1.5,0.5-5.9,2.2-5.9,7.1c0,4.9,4.8,8.4,12.1,8.4c6.6,0,10.1-3.2,10.1-7.4C269.9,83,267.6,81.1,262.3,77.4z M264.3,64.3
			c1.6-1.6,1.7-3.8,1.7-5c0-5-3-12.7-8.7-12.7c-1.8,0-3.7,0.9-4.8,2.3c-1.2,1.4-1.5,3.3-1.5,5.1c0,4.6,2.7,12.3,8.6,12.3
			C261.4,66.3,263.2,65.4,264.3,64.3z"/>
		<path d="M223.9,76.3c-10.9,0-16.8-8.5-16.8-16.2c0-9,7.4-16.7,17.8-16.7c10.1,0,16.4,7.9,16.4,16.2
			C241.3,67.7,235.1,76.3,223.9,76.3z M232.5,70.7c1.7-2.2,2.1-5,2.1-7.6c0-6.1-2.9-17.6-11.4-17.6c-2.3,0-4.5,0.9-6.2,2.3
			c-2.7,2.4-3.2,5.4-3.2,8.4c0,6.8,3.4,18,11.7,18C228.1,74.2,230.9,72.9,232.5,70.7z"/>
		<path d="M186.6,76.3c-10.9,0-16.8-8.5-16.8-16.2c0-9,7.4-16.7,17.8-16.7c10.1,0,16.4,7.9,16.4,16.2
			C204,67.7,197.8,76.3,186.6,76.3z M195.2,70.7c1.7-2.2,2.1-5,2.1-7.6c0-6.1-2.9-17.6-11.4-17.6c-2.3,0-4.5,0.9-6.2,2.3
			c-2.7,2.4-3.2,5.4-3.2,8.4c0,6.8,3.4,18,11.7,18C190.8,74.2,193.6,72.9,195.2,70.7z"/>
		<path d="M164.5,75.2l-9.9,2.3c-4,0.6-7.6,1.2-11.4,1.2c-19.1,0-26.4-14-26.4-25c0-13.4,10.3-25.9,27.9-25.9
			c3.7,0,7.3,0.6,10.6,1.5c5.2,1.5,7.6,3.2,9.1,4.3l-5.7,5.5l-2.4,0.6l1.7-2.8c-2.4-2.3-6.6-6.5-14.8-6.5
			c-10.9,0-19.2,8.3-19.2,20.4c0,13,9.4,25.2,24.5,25.2c4.4,0,6.7-0.9,8.8-1.7V63.1l-10.4,0.6l5.5-3h14.7l-1.8,1.7
			c-0.5,0.4-0.6,0.6-0.7,1.1c-0.1,0.6-0.1,2.6-0.1,3.3V75.2z"/>
		<path d="M289.1,73.2c-2.3-0.2-2.8-0.6-2.8-3.3v-0.8V30.8c0-0.1,0-0.3,0-0.4c0.3-2.4,1-2.8,3.1-4.1h-9.9l-5.2,2.5h5.3v0l0,0v40.4
			v2.3c0,1.4-0.3,1.6-1.9,3.7h12.2l2.6-1.5C291.5,73.4,290.3,73.4,289.1,73.2z"/>
		<path d="M317.3,73.9c-0.8,0.4-1.5,0.9-2.3,1.2c-2.3,1-4.6,1.3-6.7,1.3c-2.2,0-5.6-0.1-9.1-2.7c-4.9-3.4-7-9.3-7-14.5
			c0-10.6,8.7-15.9,15.7-15.9c2.5,0,5,0.6,7.1,1.9c3.4,2.3,4.3,5.2,4.8,6.8l-16.1,6.5l-5.3,0.4c1.7,8.7,7.6,13.8,14.2,13.8
			c3.5,0,6-1.2,8.4-2.4L317.3,73.9z M310.8,53.4c1.3-0.5,2-0.9,2-1.9c0-2.7-3.1-5.9-6.8-5.9c-2.8,0-7.9,2.1-7.9,9.5
			c0,1.2,0.1,2.4,0.2,3.6L310.8,53.4z"/>
		<g>
			<path d="M323.9,43.8v4.5h-0.6v-4.5h-1.5v-0.5h3.5v0.5H323.9z"/>
			<path d="M330.1,48.4v-4.6h0l-1.4,4.6h-0.4l-1.4-4.6h0v4.6h-0.5v-5h0.9l1.3,4h0l1.3-4h0.9v5H330.1z"/>
		</g>
	</g>
	<g>
		<path d="M130.6,14.3h-3.4c0-0.5-0.3-1.8-1-4h-5c-0.7,2.2-1,3.5-1,4H117c0-0.3,0.8-2.6,2.5-6.9c1.7-4.3,2.5-6.7,2.5-7.1h4.1
			c0,0.4,0.8,2.7,2.3,7C129.8,11.6,130.6,13.9,130.6,14.3z M125.6,8.2c-1.2-3.7-1.8-5.7-1.8-6h-0.2c0,0.3-0.6,2.3-1.9,6H125.6z"/>
		<path d="M144.4,14.3h-2.7c0-0.3-1-1.8-3-4.7c-2.1-3-3.2-5-3.5-6.1h-0.2c0.2,1.6,0.3,3,0.3,4.3c0,1.8,0,3.9,0.2,6.5h-2.6
			c0.1-2.2,0.2-4.7,0.2-7.3c0-2.6-0.1-4.8-0.2-6.7h3.2c0,0.4,0.9,1.9,2.7,4.5c1.9,2.8,3,4.7,3.2,5.7h0.2c-0.2-1.6-0.3-3-0.3-4.3
			c0-1.9-0.1-3.9-0.2-6h2.7c-0.1,1.8-0.2,4-0.2,6.7C144.3,9.7,144.3,12.1,144.4,14.3z"/>
		<path d="M160,6.8c0,2-0.7,3.8-2,5.3c-1.3,1.5-3.1,2.3-5.5,2.3c-1.1,0-2.5,0-4.4-0.1c0.1-2.2,0.1-4.6,0.1-7.3c0-2.6,0-4.8-0.1-6.7
			h1.9c0.3,0,0.8,0,1.4,0c0.6,0,1,0,1.2,0c2.6,0,4.5,0.6,5.6,1.9C159.4,3.5,160,5,160,6.8z M157.1,7.3c0-1.4-0.4-2.5-1.2-3.5
			c-0.8-0.9-2-1.4-3.7-1.4c-0.3,0-0.7,0-1.3,0.1C151,3.9,151,5.4,151,7c0,1.7,0,3.4,0.1,5.1c0.5,0.1,0.9,0.1,1.4,0.1
			c1.5,0,2.7-0.5,3.4-1.4C156.7,9.8,157.1,8.7,157.1,7.3z"/>
		<path d="M174.4,14.3h-3.2c-0.8-2.5-1.5-4.1-1.9-4.7c-0.4-0.6-1.2-0.9-2.1-0.9c-0.4,0-0.8,0-1.2,0c0,1.8,0,3.7,0.1,5.6h-3
			c0.1-2.2,0.1-4.6,0.1-7.3c0-2.6,0-4.8-0.1-6.7h1.9c0.2,0,0.7,0,1.3,0c0.7,0,1.3,0,1.9,0c3.3,0,4.9,1.1,4.9,3.4
			c0,1.8-0.9,3-2.8,3.7v0.2c0.7,0.2,1.4,0.8,1.9,1.7C172.7,10.1,173.4,11.8,174.4,14.3z M170.3,4.4c0-1.4-0.9-2.1-2.8-2.1
			c-0.7,0-1.3,0.1-1.8,0.2c0.1,1.1,0.1,2.6,0.1,4.3c0.4,0,0.7,0,1,0C169.2,6.8,170.3,6,170.3,4.4z"/>
		<path d="M189.8,7.1c0,2.2-0.7,4-2,5.5c-1.3,1.4-3,2.2-5,2.2c-1.9,0-3.5-0.7-4.7-2c-1.3-1.3-1.9-3-1.9-5.1c0-2.2,0.7-4,2-5.5
			c1.3-1.4,3-2.2,5-2.2c1.9,0,3.5,0.7,4.7,2C189.1,3.3,189.8,5,189.8,7.1z M186.8,7.4c0-1.5-0.4-2.7-1.1-3.6
			c-0.8-0.9-1.7-1.4-2.8-1.4c-1,0-1.9,0.5-2.7,1.4c-0.7,0.9-1.1,2.1-1.1,3.6c0,1.5,0.4,2.7,1.2,3.6c0.8,0.9,1.7,1.4,2.8,1.4
			c1,0,1.9-0.5,2.7-1.4C186.4,10,186.8,8.8,186.8,7.4z"/>
		<path d="M195.8,14.3h-3c0.1-2.2,0.1-4.7,0.1-7.3c0-2.6,0-4.8-0.1-6.7h3c-0.1,1.8-0.1,4-0.1,6.7C195.7,9.7,195.7,12.1,195.8,14.3z"
			/>
		<path d="M211.4,6.8c0,2-0.7,3.8-2,5.3c-1.3,1.5-3.1,2.3-5.5,2.3c-1.1,0-2.5,0-4.4-0.1c0.1-2.2,0.1-4.6,0.1-7.3
			c0-2.6,0-4.8-0.1-6.7h1.9c0.3,0,0.8,0,1.4,0c0.6,0,1,0,1.2,0c2.6,0,4.5,0.6,5.6,1.9C210.8,3.5,211.4,5,211.4,6.8z M208.5,7.3
			c0-1.4-0.4-2.5-1.2-3.5c-0.8-0.9-2-1.4-3.7-1.4c-0.3,0-0.7,0-1.3,0.1c0.1,1.4,0.1,2.9,0.1,4.5c0,1.7,0,3.4,0.1,5.1
			c0.5,0.1,0.9,0.1,1.4,0.1c1.5,0,2.7-0.5,3.4-1.4C208.1,9.8,208.5,8.7,208.5,7.3z"/>
		<path d="M232.1,14.3h-3.4c0-0.5-0.3-1.8-1-4h-5c-0.7,2.2-1,3.5-1,4h-3.2c0-0.3,0.8-2.6,2.5-6.9c1.7-4.3,2.5-6.7,2.5-7.1h4.1
			c0,0.4,0.8,2.7,2.3,7C231.3,11.6,232.1,13.9,232.1,14.3z M227.1,8.2c-1.2-3.7-1.8-5.7-1.8-6h-0.2c0,0.3-0.6,2.3-1.9,6H227.1z"/>
		<path d="M244.6,4c0,1.7-0.6,3-1.9,3.8C241.4,8.6,239.9,9,238,9c-0.3,0-0.6,0-0.7,0c0,1.3,0,3.1,0.1,5.3h-3
			c0.1-2.1,0.1-4.5,0.1-7.3c0-2.6,0-4.8-0.1-6.7h1.9c0.3,0,0.8,0,1.5,0c0.8,0,1.4,0,2,0c1.4,0,2.5,0.3,3.4,0.9
			C244.1,1.8,244.6,2.7,244.6,4z M241.8,4.6c0-1.5-1-2.3-3.1-2.3c-0.5,0-1,0.1-1.6,0.2c0.1,1.4,0.1,2.9,0.1,4.6c0.2,0,0.4,0,0.6,0
			C240.5,7.1,241.8,6.2,241.8,4.6z"/>
		<path d="M257.5,4c0,1.7-0.6,3-1.9,3.8c-1.3,0.8-2.8,1.2-4.7,1.2c-0.3,0-0.6,0-0.7,0c0,1.3,0,3.1,0.1,5.3h-3
			c0.1-2.1,0.1-4.5,0.1-7.3c0-2.6,0-4.8-0.1-6.7h1.9c0.3,0,0.8,0,1.5,0c0.8,0,1.4,0,2,0c1.4,0,2.5,0.3,3.4,0.9
			C257,1.8,257.5,2.7,257.5,4z M254.7,4.6c0-1.5-1-2.3-3.1-2.3c-0.5,0-1,0.1-1.6,0.2c0.1,1.4,0.1,2.9,0.1,4.6c0.2,0,0.4,0,0.6,0
			C253.4,7.1,254.7,6.2,254.7,4.6z"/>
		<path d="M278.5,7.1c0,2.2-0.7,4-2,5.5c-1.3,1.4-3,2.2-5,2.2c-1.9,0-3.5-0.7-4.7-2c-1.3-1.3-1.9-3-1.9-5.1c0-2.2,0.7-4,2-5.5
			c1.3-1.4,3-2.2,5-2.2c1.9,0,3.5,0.7,4.7,2C277.9,3.3,278.5,5,278.5,7.1z M275.6,7.4c0-1.5-0.4-2.7-1.1-3.6
			c-0.8-0.9-1.7-1.4-2.8-1.4c-1,0-1.9,0.5-2.7,1.4c-0.7,0.9-1.1,2.1-1.1,3.6c0,1.5,0.4,2.7,1.2,3.6c0.8,0.9,1.7,1.4,2.8,1.4
			c1,0,1.9-0.5,2.7-1.4C275.2,10,275.6,8.8,275.6,7.4z"/>
		<path d="M293.1,14.3h-2.7c0-0.3-1-1.8-3-4.7c-2.1-3-3.2-5-3.5-6.1h-0.2c0.2,1.6,0.3,3,0.3,4.3c0,1.8,0,3.9,0.2,6.5h-2.6
			c0.1-2.2,0.2-4.7,0.2-7.3c0-2.6-0.1-4.8-0.2-6.7h3.2c0,0.4,0.9,1.9,2.7,4.5c1.9,2.8,3,4.7,3.2,5.7h0.2c-0.2-1.6-0.3-3-0.3-4.3
			c0-1.9,0-3.9-0.2-6h2.7C293,2.1,293,4.3,293,7C293,9.7,293,12.1,293.1,14.3z"/>
	</g>
</g>
</svg>
