<?xml version="1.0" encoding="utf-8"?>
<!-- Generator: Adobe Illustrator 19.0.0, SVG Export Plug-In . SVG Version: 6.00 Build 0)  -->
<svg version="1.1" id="Layer_1" xmlns="http://www.w3.org/2000/svg" xmlns:xlink="http://www.w3.org/1999/xlink" x="0px" y="0px"
	 viewBox="0 0 439.9 123.5" style="enable-background:new 0 0 439.9 123.5;" xml:space="preserve">
<path d="M50.7,1.6H9c-5,0-9,4-9,9v92.3c0,5,4,9,9,9h41.7c5,0,9-4,9-9V10.6C59.7,5.6,55.7,1.6,50.7,1.6z M29.9,105.3
	c-3.3,0-6-2.7-6-6c0-3.3,2.7-6,6-6c3.3,0,6,2.7,6,6C35.9,102.6,33.2,105.3,29.9,105.3z M52.6,90.3H7.1V22.3h45.5V90.3z"/>
<g>
	<path d="M93.9,18l-2.5,7.7h-3.3l8.3-24.4h3.8l8.3,24.4h-3.4l-2.6-7.7H93.9z M101.9,15.6l-2.4-7c-0.5-1.6-0.9-3-1.2-4.4h-0.1
		c-0.3,1.4-0.7,2.9-1.2,4.4l-2.4,7.1H101.9z"/>
	<path d="M111.7,8.2l3.4,9.8c0.6,1.6,1.1,3.1,1.4,4.5h0.1c0.4-1.4,0.9-2.9,1.5-4.5l3.4-9.8h3.3L118,25.7h-3l-6.7-17.5H111.7z"/>
	<path d="M139.6,21.5c0,1.5,0.1,3,0.3,4.2H137l-0.3-2.2h-0.1c-0.9,1.4-2.9,2.6-5.4,2.6c-3.5,0-5.4-2.5-5.4-5c0-4.2,3.8-6.5,10.5-6.5
		v-0.4c0-1.4-0.4-4.1-4-4c-1.7,0-3.4,0.5-4.6,1.3l-0.7-2.1c1.4-0.9,3.6-1.5,5.8-1.5c5.4,0,6.7,3.7,6.7,7.2V21.5z M136.5,16.7
		c-3.5-0.1-7.4,0.5-7.4,3.9c0,2.1,1.4,3,3,3c2.3,0,3.8-1.4,4.3-2.9c0.1-0.3,0.1-0.7,0.1-1V16.7z"/>
	<path d="M146,5c-1.2,0-2-0.9-2-2.1c0-1.1,0.8-2,2.1-2c1.2,0,2,0.9,2,2C148.1,4,147.3,5,146,5L146,5z M144.5,25.7V8.2h3.2v17.5
		H144.5z"/>
	<path d="M152.8,0h3.2v25.7h-3.2V0z"/>
	<path d="M173.4,21.5c0,1.5,0.1,3,0.3,4.2h-2.9l-0.3-2.2h-0.1c-0.9,1.4-2.9,2.6-5.4,2.6c-3.5,0-5.4-2.5-5.4-5
		c0-4.2,3.8-6.5,10.5-6.5v-0.4c0-1.4-0.4-4.1-4-4c-1.7,0-3.4,0.5-4.6,1.3l-0.7-2.1c1.4-0.9,3.6-1.5,5.8-1.5c5.4,0,6.7,3.7,6.7,7.2
		V21.5z M170.3,16.7c-3.5-0.1-7.4,0.5-7.4,3.9c0,2.1,1.4,3,3,3c2.3,0,3.8-1.4,4.3-2.9c0.1-0.3,0.1-0.7,0.1-1V16.7z"/>
	<path d="M178.3,0h3.2v11h0.1c1.1-2,3.1-3.2,6-3.2c4.3,0,7.4,3.6,7.4,8.9c0,6.3-4,9.4-7.9,9.4c-2.5,0-4.5-1-5.9-3.3h-0.1l-0.2,2.9
		h-2.7c0.1-1.2,0.1-3,0.1-4.5V0z M181.5,18.7c0,0.4,0,0.8,0.1,1.2c0.6,2.2,2.5,3.7,4.8,3.7c3.4,0,5.3-2.7,5.3-6.7
		c0-3.5-1.8-6.5-5.2-6.5c-2.2,0-4.2,1.5-4.8,3.9c-0.1,0.4-0.2,0.8-0.2,1.3V18.7z"/>
	<path d="M198.7,0h3.2v25.7h-3.2V0z"/>
	<path d="M208.8,17.5c0.1,4.3,2.8,6.1,6,6.1c2.3,0,3.7-0.4,4.8-0.9l0.6,2.2c-1.1,0.5-3.1,1.1-5.9,1.1c-5.4,0-8.6-3.6-8.6-8.8
		c0-5.3,3.1-9.5,8.3-9.5c5.7,0,7.2,5,7.2,8.2c0,0.7,0,1.2-0.1,1.5L208.8,17.5z M218.1,15.2c0-2-0.8-5.2-4.4-5.2
		c-3.3,0-4.6,3-4.9,5.2H218.1z"/>
	<path d="M239.6,26.1c-4.7,0-8.4-3.5-8.4-9c0-5.9,3.9-9.3,8.7-9.3c5,0,8.4,3.7,8.4,9C248.3,23.3,243.7,26.1,239.6,26.1L239.6,26.1z
		 M239.7,23.7c3,0,5.3-2.9,5.3-6.8c0-3-1.5-6.7-5.2-6.7c-3.7,0-5.4,3.5-5.4,6.8C234.4,20.8,236.6,23.7,239.7,23.7L239.7,23.7z"/>
	<path d="M252.1,12.9c0-1.8,0-3.3-0.2-4.7h2.8L255,11h0.1c0.9-1.6,2.9-3.3,5.8-3.3c2.4,0,6.2,1.4,6.2,7.5v10.5h-3.2V15.6
		c0-2.8-1-5.2-4.1-5.2c-2.1,0-3.7,1.5-4.3,3.3c-0.1,0.4-0.2,1-0.2,1.5v10.6h-3.2V12.9z"/>
	<path d="M283.3,4v4.2h4.6v2.4h-4.6V20c0,2.2,0.6,3.4,2.4,3.4c0.9,0,1.4-0.1,1.8-0.2l0.1,2.4c-0.6,0.2-1.6,0.4-2.8,0.4
		c-1.5,0-2.7-0.5-3.4-1.3c-0.9-1-1.2-2.5-1.2-4.6v-9.6h-2.7V8.2h2.7V5L283.3,4z"/>
	<path d="M291.3,0h3.2v10.9h0.1c0.5-0.9,1.3-1.7,2.3-2.2c0.9-0.6,2.1-0.9,3.3-0.9c2.3,0,6.1,1.4,6.1,7.5v10.4H303V15.6
		c0-2.9-1.1-5.2-4.1-5.2c-2.1,0-3.7,1.4-4.3,3.2c-0.2,0.4-0.2,0.9-0.2,1.5v10.6h-3.2V0z"/>
	<path d="M313,17.5c0.1,4.3,2.8,6.1,6,6.1c2.3,0,3.7-0.4,4.9-0.9l0.6,2.2c-1.1,0.5-3.1,1.1-5.9,1.1c-5.4,0-8.6-3.6-8.6-8.8
		c0-5.3,3.1-9.5,8.3-9.5c5.7,0,7.2,5,7.2,8.2c0,0.7,0,1.2-0.1,1.5L313,17.5z M322.3,15.2c0-2-0.8-5.2-4.4-5.2c-3.3,0-4.6,3-4.9,5.2
		H322.3z"/>
	<path d="M338.1,5c-1.2,0-2-0.9-2-2.1c0-1.1,0.8-2,2.1-2c1.2,0,2,0.9,2,2C340.2,4,339.4,5,338.1,5L338.1,5z M336.6,25.7V8.2h3.2
		v17.5H336.6z"/>
	<path d="M345,1.6c1.5-0.3,3.5-0.5,6-0.5c3.1,0,5.4,0.7,6.8,2c1.3,1.2,2.2,2.9,2.2,5.1c0,2.2-0.7,3.9-1.9,5.2
		c-1.7,1.8-4.4,2.7-7.5,2.7c-0.9,0-1.8,0-2.5-0.2v9.8H345V1.6z M348.2,13.3c0.7,0.2,1.6,0.3,2.6,0.3c3.8,0,6.1-1.9,6.1-5.2
		c0-3.3-2.3-4.8-5.8-4.8c-1.4,0-2.4,0.1-3,0.3V13.3z"/>
	<path d="M363.8,0h3.2v10.9h0.1c0.5-0.9,1.3-1.7,2.3-2.2c0.9-0.6,2.1-0.9,3.3-0.9c2.4,0,6.1,1.4,6.1,7.5v10.4h-3.2V15.6
		c0-2.9-1.1-5.2-4.1-5.2c-2.1,0-3.7,1.4-4.3,3.2c-0.2,0.4-0.2,0.9-0.2,1.5v10.6h-3.2V0z"/>
	<path d="M390.8,26.1c-4.7,0-8.4-3.5-8.4-9c0-5.9,3.9-9.3,8.7-9.3c5,0,8.4,3.7,8.4,9C399.5,23.3,395,26.1,390.8,26.1L390.8,26.1z
		 M390.9,23.7c3,0,5.3-2.9,5.3-6.8c0-3-1.5-6.7-5.2-6.7c-3.7,0-5.4,3.5-5.4,6.8C385.6,20.8,387.8,23.7,390.9,23.7L390.9,23.7z"/>
	<path d="M403.4,12.9c0-1.8,0-3.3-0.1-4.7h2.8l0.2,2.9h0.1c0.9-1.6,2.9-3.3,5.8-3.3c2.4,0,6.2,1.4,6.2,7.5v10.5h-3.2V15.6
		c0-2.8-1.1-5.2-4.1-5.2c-2.1,0-3.7,1.5-4.3,3.3c-0.1,0.4-0.2,1-0.2,1.5v10.6h-3.2V12.9z"/>
	<path d="M425.1,17.5c0.1,4.3,2.8,6.1,6,6.1c2.3,0,3.7-0.4,4.8-0.9l0.6,2.2c-1.1,0.5-3.1,1.1-5.9,1.1c-5.4,0-8.6-3.6-8.6-8.8
		c0-5.3,3.1-9.5,8.2-9.5c5.7,0,7.2,5,7.2,8.2c0,0.7,0,1.2-0.1,1.5L425.1,17.5z M434.4,15.2c0-2-0.8-5.2-4.4-5.2
		c-3.3,0-4.6,3-4.9,5.2H434.4z"/>
</g>
<g>
	<path d="M108.9,42.2l-21.5,63.1h9.8l6.4-19.4h20.8l6.6,19.4h10.1l-21.5-63.1H108.9z M114,52.6c0.7,2.8,1.5,5.7,2.5,8.9l5.8,16.7
		h-16.5l5.7-16.9C112.4,58.7,113.2,55.7,114,52.6z"/>
	<path d="M168.8,58.6c-6.5,0-11.7,2.5-15.2,7.3l-0.4-6.3h-8.7l0.1,0.8c0.3,3.9,0.4,8.2,0.4,14.4v48.7h9.6v-22.7
		c3,3.5,7.7,5.6,13.1,5.6c5.6,0,10.7-2.2,14.5-6.2c4.2-4.4,6.4-10.8,6.4-18.4c0-6.7-1.9-12.5-5.6-16.8
		C179.3,60.9,174.3,58.6,168.8,58.6z M166.5,66.5c8.5,0,12.3,7.9,12.3,15.7c0,10.1-4.9,16.3-12.7,16.3c-5.3,0-10-3.6-11.3-8.9
		c-0.2-0.8-0.3-1.9-0.3-3.1v-7.7c0-0.7,0.2-1.5,0.3-2.4c0-0.3,0.1-0.5,0.1-0.8C156.4,70.3,161.1,66.5,166.5,66.5z"/>
	<path d="M218,58.6c-6.5,0-11.7,2.5-15.2,7.3l-0.4-6.3h-8.7l0,0.8c0.3,3.9,0.4,8.2,0.4,14.4v48.7h9.6v-22.7c3,3.5,7.7,5.6,13.1,5.6
		c5.6,0,10.7-2.2,14.5-6.2c4.2-4.4,6.4-10.8,6.4-18.4c0-6.7-1.9-12.5-5.6-16.8C228.5,60.9,223.5,58.6,218,58.6z M215.7,66.5
		c8.5,0,12.3,7.9,12.3,15.7c0,10.1-4.9,16.3-12.7,16.3c-5.3,0-10-3.6-11.3-8.9c-0.2-0.8-0.3-1.9-0.3-3.1v-7.7c0-0.7,0.2-1.5,0.3-2.4
		c0-0.3,0.1-0.5,0.1-0.8C205.6,70.3,210.3,66.5,215.7,66.5z"/>
	<path d="M279.7,69c-8.9-3.5-11.8-6.2-11.8-11.2c0-4.2,3.4-8.5,10.9-8.5c6.2,0,10.2,2.2,11.2,2.8l0.8,0.5l2.7-8l-0.5-0.3
		c-1.6-0.9-6.2-3.1-13.9-3.1c-12.2,0-20.7,7.2-20.7,17.5c0,8.3,5.3,14.1,16.8,18.3c8.1,3,11.1,6.1,11.1,11.5c0,6-4.7,9.8-12.1,9.8
		c-4.9,0-9.9-1.4-13.8-3.9l-0.8-0.5l-2.6,8.2l0.5,0.3c3.6,2.4,10.4,4.2,16.1,4.2c16.4,0,22.2-10,22.2-18.6
		C295.8,78.9,291.1,73.5,279.7,69z"/>
	<path d="M313,48.7l-9.4,2.9v7.9h-6.9v7.6h6.9v23.4c0,5.7,1.1,9.6,3.3,12.1c2.1,2.3,5.4,3.6,9.2,3.6c3.6,0,6.2-0.7,7.4-1.1l0.5-0.2
		l-0.5-7.6l-0.9,0.3c-1.2,0.4-2.4,0.5-4.4,0.5c-3.7,0-5.3-2.3-5.3-7.8V67.2h11.5v-7.6H313V48.7z"/>
	<path d="M348.2,58.6c-13.4,0-22.7,10-22.7,24.3c0,13.9,9,23.5,22,23.5h0.1c10.9,0,22.7-7.6,22.7-24.3c0-6.8-2.1-12.6-6.1-16.9
		C360.1,60.8,354.6,58.6,348.2,58.6z M347.9,66.1c8.6,0,12.5,8.4,12.5,16.2c0,9.6-5.3,16.5-12.7,16.5h-0.1
		c-7.2,0-12.5-6.8-12.5-16.3C335.1,74.4,339.1,66.1,347.9,66.1z"/>
	<path d="M399.5,59l-0.6-0.1c-0.8-0.2-1.5-0.3-2.4-0.3c-5,0-9.5,2.9-12,7.7l-0.3-6.7h-8.6l0.1,0.8c0.3,3.8,0.4,8,0.4,13.8l-0.1,31.2
		h9.6V81c0-1.3,0.1-2.6,0.3-3.7c1.1-5.9,5-9.6,10.1-9.6c1,0,1.7,0.1,2.6,0.2l1,0.1V59z"/>
	<path d="M421,58.5c-12.7,0-21.6,10.2-21.6,24.7c0,14,8.8,23.1,22.5,23.1c7.2,0,12.2-1.6,15.1-2.9l0.6-0.3l-1.8-7.1l-0.8,0.3
		c-2.6,1.1-6.1,2.1-12,2.1c-4.2,0-13.7-1.4-14.3-13.9l30.8,0.1l0.1-0.6c0.2-1,0.3-2.3,0.3-4C439.9,70.1,435,58.5,421,58.5z
		 M420.3,65.7c2.9,0,5.3,0.9,7,2.7c2.7,2.8,3.2,6.9,3.3,8.9h-21.8C409.7,71.8,413.2,65.7,420.3,65.7z"/>
</g>
</svg>
