<?xml version="1.0" encoding="utf-8"?>
<!-- Generator: Adobe Illustrator 20.1.0, SVG Export Plug-In . SVG Version: 6.00 Build 0)  -->
<svg version="1.1" id="Layer_1" xmlns="http://www.w3.org/2000/svg" xmlns:xlink="http://www.w3.org/1999/xlink" x="0px" y="0px"
	 viewBox="0 0 116.5 48.6" style="enable-background:new 0 0 116.5 48.6;" xml:space="preserve">
<style type="text/css">
	.st0{fill:#004F98;}
	.st1{fill:#F7A600;}
</style>
<g>
	<polygon class="st0" points="41,42.6 47,6.1 56.4,6.1 50.5,42.6 	"/>
	<path class="st0" d="M84.8,7c-1.9-0.8-4.8-1.6-8.5-1.6c-9.3,0-16,5-16,12.2c-0.1,5.3,4.7,8.1,8.3,9.9c3.6,1.8,4.9,2.9,4.9,4.6
		c-0.1,2.5-2.9,3.5-5.7,3.5c-3.8,0-5.8-0.6-8.9-1.9l-1.2-0.6l-1.3,8.2c2.2,1,6.3,1.9,10.5,1.9c9.9,0,16.4-4.9,16.5-12.5
		c0.1-4.2-2.5-7.3-7.9-9.9c-3.4-1.7-5.3-2.8-5.3-4.5c0.1-1.6,1.7-3.2,5.4-3.2c3.1-0.1,5.3,0.7,7.1,1.4l0.9,0.3L84.8,7L84.8,7z"/>
	<path class="st0" d="M97.3,29.6c0.8-2.1,3.8-10.3,3.8-10.3c-0.1,0.1,0.8-2.2,1.2-3.4l0.7,3.2c0,0,1.8,8.8,2.2,10.5
		C103.7,29.6,99.2,29.6,97.3,29.6L97.3,29.6z M108.9,6.1h-7.3c-2.2,0-4,0.7-5,3l-14,33.5h9.9c0,0,1.6-4.5,2-5.5c1.1,0,10.7,0,12.1,0
		c0.3,1.3,1.1,5.5,1.1,5.5h8.8L108.9,6.1L108.9,6.1z"/>
	<path class="st0" d="M33.2,6.1L24,31l-1-5c-1.7-5.8-7.1-12.2-13-15.3l8.5,32h10L43.2,6.2L33.2,6.1L33.2,6.1z"/>
	<path class="st1" d="M15.3,6.1H0.2L0,6.9c11.9,3,19.7,10.3,22.9,19.1L19.7,9.2C19.1,6.9,17.4,6.2,15.3,6.1L15.3,6.1z"/>
</g>
</svg>
